<mxfile host="app.diagrams.net" modified="2022-08-29T09:56:04.254Z" agent="5.0 (Windows NT 10.0; Win64; x64) AppleWebKit/537.36 (KHTML, like Gecko) Chrome/102.0.5005.124 Safari/537.36 Edg/102.0.1245.41" etag="wF3RxHJTwI7usZdann2A" version="20.2.2" type="github">
  <diagram id="C5RBs43oDa-KdzZeNtuy" name="Page-1">
    <mxGraphModel dx="2173" dy="1370" grid="1" gridSize="10" guides="1" tooltips="1" connect="1" arrows="1" fold="1" page="1" pageScale="1" pageWidth="827" pageHeight="1169" math="0" shadow="0">
      <root>
        <mxCell id="WIyWlLk6GJQsqaUBKTNV-0" />
        <mxCell id="WIyWlLk6GJQsqaUBKTNV-1" parent="WIyWlLk6GJQsqaUBKTNV-0" />
        <mxCell id="CGNY96M8Sa9pFSSGAjqj-4" value="标签管理中心" style="sketch=0;points=[[0,0,0],[0.25,0,0],[0.5,0,0],[0.75,0,0],[1,0,0],[1,0.25,0],[1,0.5,0],[1,0.75,0],[1,1,0],[0.75,1,0],[0.5,1,0],[0.25,1,0],[0,1,0],[0,0.75,0],[0,0.5,0],[0,0.25,0]];rounded=1;absoluteArcSize=1;arcSize=2;html=1;strokeColor=#D5E8D4;gradientColor=none;shadow=0;dashed=0;fontSize=14;fontColor=#4D4D4D;align=left;verticalAlign=top;spacing=10;spacingTop=-4;fillColor=#F2F7EA;fontStyle=1;strokeWidth=1;" vertex="1" parent="WIyWlLk6GJQsqaUBKTNV-1">
          <mxGeometry x="250" y="940" width="770" height="450" as="geometry" />
        </mxCell>
        <mxCell id="CGNY96M8Sa9pFSSGAjqj-5" value="数据工艺流程配置" style="sketch=0;points=[[0,0,0],[0.25,0,0],[0.5,0,0],[0.75,0,0],[1,0,0],[1,0.25,0],[1,0.5,0],[1,0.75,0],[1,1,0],[0.75,1,0],[0.5,1,0],[0.25,1,0],[0,1,0],[0,0.75,0],[0,0.5,0],[0,0.25,0]];rounded=1;absoluteArcSize=1;arcSize=2;html=1;strokeColor=#D5E8D4;gradientColor=none;shadow=0;dashed=0;fontSize=14;fontColor=#4D4D4D;align=left;verticalAlign=top;spacing=10;spacingTop=-4;fillColor=#f2f7ea;fontStyle=1;strokeWidth=1;" vertex="1" parent="WIyWlLk6GJQsqaUBKTNV-1">
          <mxGeometry x="250" y="480" width="770" height="440" as="geometry" />
        </mxCell>
        <mxCell id="CGNY96M8Sa9pFSSGAjqj-7" value="影像数据" style="sketch=0;points=[[0,0,0],[0.25,0,0],[0.5,0,0],[0.75,0,0],[1,0,0],[1,0.25,0],[1,0.5,0],[1,0.75,0],[1,1,0],[0.75,1,0],[0.5,1,0],[0.25,1,0],[0,1,0],[0,0.75,0],[0,0.5,0],[0,0.25,0]];rounded=1;absoluteArcSize=1;arcSize=2;html=1;strokeColor=none;gradientColor=none;shadow=0;dashed=0;fontSize=12;fontColor=#4D4D4D;align=left;verticalAlign=top;spacing=10;spacingTop=-4;fillColor=#FFF8E1;" vertex="1" parent="WIyWlLk6GJQsqaUBKTNV-1">
          <mxGeometry x="265" y="980" width="495" height="300" as="geometry" />
        </mxCell>
        <mxCell id="CGNY96M8Sa9pFSSGAjqj-8" value="矢量数据" style="sketch=0;points=[[0,0,0],[0.25,0,0],[0.5,0,0],[0.75,0,0],[1,0,0],[1,0.25,0],[1,0.5,0],[1,0.75,0],[1,1,0],[0.75,1,0],[0.5,1,0],[0.25,1,0],[0,1,0],[0,0.75,0],[0,0.5,0],[0,0.25,0]];rounded=1;absoluteArcSize=1;arcSize=2;html=1;strokeColor=none;gradientColor=none;shadow=0;dashed=0;fontSize=12;fontColor=#4D4D4D;align=left;verticalAlign=top;spacing=10;spacingTop=-4;fillColor=#FFF8E1;" vertex="1" parent="WIyWlLk6GJQsqaUBKTNV-1">
          <mxGeometry x="765" y="980" width="230" height="300" as="geometry" />
        </mxCell>
        <mxCell id="CGNY96M8Sa9pFSSGAjqj-23" value="加工程度" style="sketch=0;points=[[0,0,0],[0.25,0,0],[0.5,0,0],[0.75,0,0],[1,0,0],[1,0.25,0],[1,0.5,0],[1,0.75,0],[1,1,0],[0.75,1,0],[0.5,1,0],[0.25,1,0],[0,1,0],[0,0.75,0],[0,0.5,0],[0,0.25,0]];rounded=1;absoluteArcSize=1;arcSize=2;html=1;strokeColor=none;gradientColor=none;shadow=0;dashed=0;fontSize=12;fontColor=#666666;align=left;verticalAlign=top;spacing=10;spacingTop=-4;fillColor=#E0F2F1;" vertex="1" parent="WIyWlLk6GJQsqaUBKTNV-1">
          <mxGeometry x="275" y="1020" width="95" height="250" as="geometry" />
        </mxCell>
        <mxCell id="CGNY96M8Sa9pFSSGAjqj-24" value="传感器类型" style="sketch=0;points=[[0,0,0],[0.25,0,0],[0.5,0,0],[0.75,0,0],[1,0,0],[1,0.25,0],[1,0.5,0],[1,0.75,0],[1,1,0],[0.75,1,0],[0.5,1,0],[0.25,1,0],[0,1,0],[0,0.75,0],[0,0.5,0],[0,0.25,0]];rounded=1;absoluteArcSize=1;arcSize=2;html=1;strokeColor=none;gradientColor=none;shadow=0;dashed=0;fontSize=12;fontColor=#666666;align=left;verticalAlign=top;spacing=10;spacingTop=-4;fillColor=#E0F2F1;" vertex="1" parent="WIyWlLk6GJQsqaUBKTNV-1">
          <mxGeometry x="380" y="1020" width="190" height="250" as="geometry" />
        </mxCell>
        <mxCell id="CGNY96M8Sa9pFSSGAjqj-25" value="专题类型" style="sketch=0;points=[[0,0,0],[0.25,0,0],[0.5,0,0],[0.75,0,0],[1,0,0],[1,0.25,0],[1,0.5,0],[1,0.75,0],[1,1,0],[0.75,1,0],[0.5,1,0],[0.25,1,0],[0,1,0],[0,0.75,0],[0,0.5,0],[0,0.25,0]];rounded=1;absoluteArcSize=1;arcSize=2;html=1;strokeColor=none;gradientColor=none;shadow=0;dashed=0;fontSize=12;fontColor=#666666;align=left;verticalAlign=top;spacing=10;spacingTop=-4;fillColor=#E0F2F1;" vertex="1" parent="WIyWlLk6GJQsqaUBKTNV-1">
          <mxGeometry x="580" y="1020" width="100" height="250" as="geometry" />
        </mxCell>
        <mxCell id="CGNY96M8Sa9pFSSGAjqj-26" value="基本类型" style="sketch=0;points=[[0,0,0],[0.25,0,0],[0.5,0,0],[0.75,0,0],[1,0,0],[1,0.25,0],[1,0.5,0],[1,0.75,0],[1,1,0],[0.75,1,0],[0.5,1,0],[0.25,1,0],[0,1,0],[0,0.75,0],[0,0.5,0],[0,0.25,0]];rounded=1;absoluteArcSize=1;arcSize=2;html=1;strokeColor=none;gradientColor=none;shadow=0;dashed=0;fontSize=12;fontColor=#666666;align=left;verticalAlign=top;spacing=10;spacingTop=-4;fillColor=#E0F2F1;" vertex="1" parent="WIyWlLk6GJQsqaUBKTNV-1">
          <mxGeometry x="777.5" y="1020" width="95" height="250" as="geometry" />
        </mxCell>
        <mxCell id="CGNY96M8Sa9pFSSGAjqj-27" value="专题类型" style="sketch=0;points=[[0,0,0],[0.25,0,0],[0.5,0,0],[0.75,0,0],[1,0,0],[1,0.25,0],[1,0.5,0],[1,0.75,0],[1,1,0],[0.75,1,0],[0.5,1,0],[0.25,1,0],[0,1,0],[0,0.75,0],[0,0.5,0],[0,0.25,0]];rounded=1;absoluteArcSize=1;arcSize=2;html=1;strokeColor=none;gradientColor=none;shadow=0;dashed=0;fontSize=12;fontColor=#666666;align=left;verticalAlign=top;spacing=10;spacingTop=-4;fillColor=#E0F2F1;" vertex="1" parent="WIyWlLk6GJQsqaUBKTNV-1">
          <mxGeometry x="887.5" y="1020" width="95" height="250" as="geometry" />
        </mxCell>
        <mxCell id="CGNY96M8Sa9pFSSGAjqj-29" value="辐射定标" style="sketch=0;points=[[0,0,0],[0.25,0,0],[0.5,0,0],[0.75,0,0],[1,0,0],[1,0.25,0],[1,0.5,0],[1,0.75,0],[1,1,0],[0.75,1,0],[0.5,1,0],[0.25,1,0],[0,1,0],[0,0.75,0],[0,0.5,0],[0,0.25,0]];rounded=1;absoluteArcSize=1;arcSize=2;html=1;strokeColor=none;gradientColor=none;shadow=0;dashed=0;fontSize=12;fontColor=#666666;align=center;verticalAlign=top;spacing=10;spacingTop=-6;fillColor=#FFF2CC;" vertex="1" parent="WIyWlLk6GJQsqaUBKTNV-1">
          <mxGeometry x="282.5" y="1060" width="80" height="30" as="geometry" />
        </mxCell>
        <mxCell id="CGNY96M8Sa9pFSSGAjqj-30" value="大气校正" style="sketch=0;points=[[0,0,0],[0.25,0,0],[0.5,0,0],[0.75,0,0],[1,0,0],[1,0.25,0],[1,0.5,0],[1,0.75,0],[1,1,0],[0.75,1,0],[0.5,1,0],[0.25,1,0],[0,1,0],[0,0.75,0],[0,0.5,0],[0,0.25,0]];rounded=1;absoluteArcSize=1;arcSize=2;html=1;strokeColor=none;gradientColor=none;shadow=0;dashed=0;fontSize=12;fontColor=#666666;align=center;verticalAlign=top;spacing=10;spacingTop=-6;fillColor=#FFF2CC;" vertex="1" parent="WIyWlLk6GJQsqaUBKTNV-1">
          <mxGeometry x="282.5" y="1099" width="80" height="30" as="geometry" />
        </mxCell>
        <mxCell id="CGNY96M8Sa9pFSSGAjqj-31" value="正射校正" style="sketch=0;points=[[0,0,0],[0.25,0,0],[0.5,0,0],[0.75,0,0],[1,0,0],[1,0.25,0],[1,0.5,0],[1,0.75,0],[1,1,0],[0.75,1,0],[0.5,1,0],[0.25,1,0],[0,1,0],[0,0.75,0],[0,0.5,0],[0,0.25,0]];rounded=1;absoluteArcSize=1;arcSize=2;html=1;strokeColor=none;gradientColor=none;shadow=0;dashed=0;fontSize=12;fontColor=#666666;align=center;verticalAlign=top;spacing=10;spacingTop=-6;fillColor=#FFF2CC;" vertex="1" parent="WIyWlLk6GJQsqaUBKTNV-1">
          <mxGeometry x="282.5" y="1139" width="80" height="30" as="geometry" />
        </mxCell>
        <mxCell id="CGNY96M8Sa9pFSSGAjqj-32" value="几何校正" style="sketch=0;points=[[0,0,0],[0.25,0,0],[0.5,0,0],[0.75,0,0],[1,0,0],[1,0.25,0],[1,0.5,0],[1,0.75,0],[1,1,0],[0.75,1,0],[0.5,1,0],[0.25,1,0],[0,1,0],[0,0.75,0],[0,0.5,0],[0,0.25,0]];rounded=1;absoluteArcSize=1;arcSize=2;html=1;strokeColor=none;gradientColor=none;shadow=0;dashed=0;fontSize=12;fontColor=#666666;align=center;verticalAlign=top;spacing=10;spacingTop=-6;fillColor=#FFF2CC;" vertex="1" parent="WIyWlLk6GJQsqaUBKTNV-1">
          <mxGeometry x="282.5" y="1180" width="80" height="30" as="geometry" />
        </mxCell>
        <mxCell id="CGNY96M8Sa9pFSSGAjqj-33" value="匀光匀色" style="sketch=0;points=[[0,0,0],[0.25,0,0],[0.5,0,0],[0.75,0,0],[1,0,0],[1,0.25,0],[1,0.5,0],[1,0.75,0],[1,1,0],[0.75,1,0],[0.5,1,0],[0.25,1,0],[0,1,0],[0,0.75,0],[0,0.5,0],[0,0.25,0]];rounded=1;absoluteArcSize=1;arcSize=2;html=1;strokeColor=none;gradientColor=none;shadow=0;dashed=0;fontSize=12;fontColor=#666666;align=center;verticalAlign=top;spacing=10;spacingTop=-6;fillColor=#FFF2CC;" vertex="1" parent="WIyWlLk6GJQsqaUBKTNV-1">
          <mxGeometry x="282.5" y="1220" width="80" height="30" as="geometry" />
        </mxCell>
        <mxCell id="CGNY96M8Sa9pFSSGAjqj-34" value="无人机" style="sketch=0;points=[[0,0,0],[0.25,0,0],[0.5,0,0],[0.75,0,0],[1,0,0],[1,0.25,0],[1,0.5,0],[1,0.75,0],[1,1,0],[0.75,1,0],[0.5,1,0],[0.25,1,0],[0,1,0],[0,0.75,0],[0,0.5,0],[0,0.25,0]];rounded=1;absoluteArcSize=1;arcSize=2;html=1;strokeColor=none;gradientColor=none;shadow=0;dashed=0;fontSize=12;fontColor=#666666;align=left;verticalAlign=top;spacing=10;spacingTop=-8;fillColor=#FFF2CC;" vertex="1" parent="WIyWlLk6GJQsqaUBKTNV-1">
          <mxGeometry x="390" y="1060" width="85" height="90" as="geometry" />
        </mxCell>
        <mxCell id="CGNY96M8Sa9pFSSGAjqj-35" value="高分卫星" style="sketch=0;points=[[0,0,0],[0.25,0,0],[0.5,0,0],[0.75,0,0],[1,0,0],[1,0.25,0],[1,0.5,0],[1,0.75,0],[1,1,0],[0.75,1,0],[0.5,1,0],[0.25,1,0],[0,1,0],[0,0.75,0],[0,0.5,0],[0,0.25,0]];rounded=1;absoluteArcSize=1;arcSize=2;html=1;strokeColor=none;gradientColor=none;shadow=0;dashed=0;fontSize=12;fontColor=#666666;align=left;verticalAlign=top;spacing=10;spacingTop=-6;fillColor=#FFF2CC;" vertex="1" parent="WIyWlLk6GJQsqaUBKTNV-1">
          <mxGeometry x="484" y="1060" width="80" height="90" as="geometry" />
        </mxCell>
        <mxCell id="CGNY96M8Sa9pFSSGAjqj-36" value="Landsat" style="sketch=0;points=[[0,0,0],[0.25,0,0],[0.5,0,0],[0.75,0,0],[1,0,0],[1,0.25,0],[1,0.5,0],[1,0.75,0],[1,1,0],[0.75,1,0],[0.5,1,0],[0.25,1,0],[0,1,0],[0,0.75,0],[0,0.5,0],[0,0.25,0]];rounded=1;absoluteArcSize=1;arcSize=2;html=1;strokeColor=none;gradientColor=none;shadow=0;dashed=0;fontSize=12;fontColor=#666666;align=left;verticalAlign=top;spacing=10;spacingTop=-6;fillColor=#FFF2CC;" vertex="1" parent="WIyWlLk6GJQsqaUBKTNV-1">
          <mxGeometry x="390" y="1159.5" width="85" height="90.5" as="geometry" />
        </mxCell>
        <mxCell id="CGNY96M8Sa9pFSSGAjqj-37" value="&lt;br&gt;&lt;br&gt;Modis" style="sketch=0;points=[[0,0,0],[0.25,0,0],[0.5,0,0],[0.75,0,0],[1,0,0],[1,0.25,0],[1,0.5,0],[1,0.75,0],[1,1,0],[0.75,1,0],[0.5,1,0],[0.25,1,0],[0,1,0],[0,0.75,0],[0,0.5,0],[0,0.25,0]];rounded=1;absoluteArcSize=1;arcSize=2;html=1;strokeColor=none;gradientColor=none;shadow=0;dashed=0;fontSize=12;fontColor=#666666;align=center;verticalAlign=top;spacing=10;spacingTop=-4;fillColor=#FFF2CC;" vertex="1" parent="WIyWlLk6GJQsqaUBKTNV-1">
          <mxGeometry x="484" y="1159.5" width="80" height="90.5" as="geometry" />
        </mxCell>
        <mxCell id="CGNY96M8Sa9pFSSGAjqj-42" value="DJ Mavic 3" style="rounded=0;whiteSpace=wrap;html=1;fontColor=#333333;fillColor=#f5f5f5;strokeColor=none;" vertex="1" parent="WIyWlLk6GJQsqaUBKTNV-1">
          <mxGeometry x="395" y="1087.5" width="70" height="25" as="geometry" />
        </mxCell>
        <mxCell id="CGNY96M8Sa9pFSSGAjqj-43" value="高分二号" style="rounded=0;whiteSpace=wrap;html=1;fontColor=#333333;fillColor=#f5f5f5;strokeColor=none;" vertex="1" parent="WIyWlLk6GJQsqaUBKTNV-1">
          <mxGeometry x="494" y="1090" width="60" height="25" as="geometry" />
        </mxCell>
        <mxCell id="CGNY96M8Sa9pFSSGAjqj-44" value="高分四号" style="rounded=0;whiteSpace=wrap;html=1;fontColor=#333333;fillColor=#f5f5f5;strokeColor=none;" vertex="1" parent="WIyWlLk6GJQsqaUBKTNV-1">
          <mxGeometry x="494" y="1117.5" width="60" height="25" as="geometry" />
        </mxCell>
        <mxCell id="CGNY96M8Sa9pFSSGAjqj-47" value="DJ M30" style="rounded=0;whiteSpace=wrap;html=1;fontColor=#333333;fillColor=#f5f5f5;strokeColor=none;" vertex="1" parent="WIyWlLk6GJQsqaUBKTNV-1">
          <mxGeometry x="395" y="1120" width="70" height="25" as="geometry" />
        </mxCell>
        <mxCell id="CGNY96M8Sa9pFSSGAjqj-49" value="各类指数" style="sketch=0;points=[[0,0,0],[0.25,0,0],[0.5,0,0],[0.75,0,0],[1,0,0],[1,0.25,0],[1,0.5,0],[1,0.75,0],[1,1,0],[0.75,1,0],[0.5,1,0],[0.25,1,0],[0,1,0],[0,0.75,0],[0,0.5,0],[0,0.25,0]];rounded=1;absoluteArcSize=1;arcSize=2;html=1;strokeColor=none;gradientColor=none;shadow=0;dashed=0;fontSize=12;fontColor=#666666;align=left;verticalAlign=top;spacing=10;spacingTop=-7;fillColor=#FFF2CC;" vertex="1" parent="WIyWlLk6GJQsqaUBKTNV-1">
          <mxGeometry x="586" y="1060" width="81" height="90" as="geometry" />
        </mxCell>
        <mxCell id="CGNY96M8Sa9pFSSGAjqj-52" value="病虫害" style="sketch=0;points=[[0,0,0],[0.25,0,0],[0.5,0,0],[0.75,0,0],[1,0,0],[1,0.25,0],[1,0.5,0],[1,0.75,0],[1,1,0],[0.75,1,0],[0.5,1,0],[0.25,1,0],[0,1,0],[0,0.75,0],[0,0.5,0],[0,0.25,0]];rounded=1;absoluteArcSize=1;arcSize=2;html=1;strokeColor=none;gradientColor=none;shadow=0;dashed=0;fontSize=12;fontColor=#666666;align=center;verticalAlign=top;spacing=10;spacingTop=-7;fillColor=#FFF2CC;" vertex="1" parent="WIyWlLk6GJQsqaUBKTNV-1">
          <mxGeometry x="587" y="1160" width="80" height="30" as="geometry" />
        </mxCell>
        <mxCell id="CGNY96M8Sa9pFSSGAjqj-55" value="DJ Mavic 3" style="rounded=0;whiteSpace=wrap;html=1;fontColor=#333333;fillColor=#f5f5f5;strokeColor=none;" vertex="1" parent="WIyWlLk6GJQsqaUBKTNV-1">
          <mxGeometry x="395" y="1087.5" width="70" height="25" as="geometry" />
        </mxCell>
        <mxCell id="CGNY96M8Sa9pFSSGAjqj-56" value="DJ M30" style="rounded=0;whiteSpace=wrap;html=1;fontColor=#333333;fillColor=#f5f5f5;strokeColor=none;" vertex="1" parent="WIyWlLk6GJQsqaUBKTNV-1">
          <mxGeometry x="395" y="1120" width="70" height="25" as="geometry" />
        </mxCell>
        <mxCell id="CGNY96M8Sa9pFSSGAjqj-58" value="DJ M30" style="rounded=0;whiteSpace=wrap;html=1;fontColor=#333333;fillColor=#f5f5f5;strokeColor=none;" vertex="1" parent="WIyWlLk6GJQsqaUBKTNV-1">
          <mxGeometry x="395" y="1120" width="70" height="25" as="geometry" />
        </mxCell>
        <mxCell id="CGNY96M8Sa9pFSSGAjqj-61" value="高分二号" style="rounded=0;whiteSpace=wrap;html=1;fontColor=#333333;fillColor=#f5f5f5;strokeColor=none;" vertex="1" parent="WIyWlLk6GJQsqaUBKTNV-1">
          <mxGeometry x="494" y="1090" width="60" height="25" as="geometry" />
        </mxCell>
        <mxCell id="CGNY96M8Sa9pFSSGAjqj-62" value="DJ M30" style="rounded=0;whiteSpace=wrap;html=1;fontColor=#333333;fillColor=#f5f5f5;strokeColor=none;" vertex="1" parent="WIyWlLk6GJQsqaUBKTNV-1">
          <mxGeometry x="395" y="1120" width="70" height="25" as="geometry" />
        </mxCell>
        <mxCell id="CGNY96M8Sa9pFSSGAjqj-65" value="高分二号" style="rounded=0;whiteSpace=wrap;html=1;fontColor=#333333;fillColor=#f5f5f5;strokeColor=none;" vertex="1" parent="WIyWlLk6GJQsqaUBKTNV-1">
          <mxGeometry x="494" y="1090" width="60" height="25" as="geometry" />
        </mxCell>
        <mxCell id="CGNY96M8Sa9pFSSGAjqj-66" value="DJ M30" style="rounded=0;whiteSpace=wrap;html=1;fontColor=#333333;fillColor=#f5f5f5;strokeColor=none;" vertex="1" parent="WIyWlLk6GJQsqaUBKTNV-1">
          <mxGeometry x="395" y="1120" width="70" height="25" as="geometry" />
        </mxCell>
        <mxCell id="CGNY96M8Sa9pFSSGAjqj-69" value="高分二号" style="rounded=0;whiteSpace=wrap;html=1;fontColor=#333333;fillColor=#f5f5f5;strokeColor=none;" vertex="1" parent="WIyWlLk6GJQsqaUBKTNV-1">
          <mxGeometry x="494" y="1090" width="60" height="25" as="geometry" />
        </mxCell>
        <mxCell id="CGNY96M8Sa9pFSSGAjqj-78" value="DJ Mavic 3" style="rounded=0;whiteSpace=wrap;html=1;fontColor=#333333;fillColor=#f5f5f5;strokeColor=none;" vertex="1" parent="WIyWlLk6GJQsqaUBKTNV-1">
          <mxGeometry x="395" y="1087.5" width="70" height="25" as="geometry" />
        </mxCell>
        <mxCell id="CGNY96M8Sa9pFSSGAjqj-79" value="DJ M30" style="rounded=0;whiteSpace=wrap;html=1;fontColor=#333333;fillColor=#f5f5f5;strokeColor=none;" vertex="1" parent="WIyWlLk6GJQsqaUBKTNV-1">
          <mxGeometry x="395" y="1120" width="70" height="25" as="geometry" />
        </mxCell>
        <mxCell id="CGNY96M8Sa9pFSSGAjqj-82" value="DJ Mavic 3" style="rounded=0;whiteSpace=wrap;html=1;fontColor=#333333;fillColor=#f5f5f5;strokeColor=none;" vertex="1" parent="WIyWlLk6GJQsqaUBKTNV-1">
          <mxGeometry x="395" y="1087.5" width="70" height="25" as="geometry" />
        </mxCell>
        <mxCell id="CGNY96M8Sa9pFSSGAjqj-83" value="DJ M30" style="rounded=0;whiteSpace=wrap;html=1;fontColor=#333333;fillColor=#f5f5f5;strokeColor=none;" vertex="1" parent="WIyWlLk6GJQsqaUBKTNV-1">
          <mxGeometry x="395" y="1120" width="70" height="25" as="geometry" />
        </mxCell>
        <mxCell id="CGNY96M8Sa9pFSSGAjqj-86" value="高分四号" style="rounded=0;whiteSpace=wrap;html=1;fontColor=#333333;fillColor=#f5f5f5;strokeColor=none;" vertex="1" parent="WIyWlLk6GJQsqaUBKTNV-1">
          <mxGeometry x="494" y="1117.5" width="60" height="25" as="geometry" />
        </mxCell>
        <mxCell id="CGNY96M8Sa9pFSSGAjqj-87" value="DJ Mavic 3" style="rounded=0;whiteSpace=wrap;html=1;fontColor=#333333;fillColor=#f5f5f5;strokeColor=none;" vertex="1" parent="WIyWlLk6GJQsqaUBKTNV-1">
          <mxGeometry x="395" y="1087.5" width="70" height="25" as="geometry" />
        </mxCell>
        <mxCell id="CGNY96M8Sa9pFSSGAjqj-88" value="DJ M30" style="rounded=0;whiteSpace=wrap;html=1;fontColor=#333333;fillColor=#f5f5f5;strokeColor=none;" vertex="1" parent="WIyWlLk6GJQsqaUBKTNV-1">
          <mxGeometry x="395" y="1120" width="70" height="25" as="geometry" />
        </mxCell>
        <mxCell id="CGNY96M8Sa9pFSSGAjqj-91" value="高分四号" style="rounded=0;whiteSpace=wrap;html=1;fontColor=#333333;fillColor=#f5f5f5;strokeColor=none;" vertex="1" parent="WIyWlLk6GJQsqaUBKTNV-1">
          <mxGeometry x="494" y="1117.5" width="60" height="25" as="geometry" />
        </mxCell>
        <mxCell id="CGNY96M8Sa9pFSSGAjqj-70" value="LST" style="rounded=0;whiteSpace=wrap;html=1;fillColor=#ffe6cc;strokeColor=none;" vertex="1" parent="WIyWlLk6GJQsqaUBKTNV-1">
          <mxGeometry x="601" y="1120" width="52" height="25" as="geometry" />
        </mxCell>
        <mxCell id="CGNY96M8Sa9pFSSGAjqj-71" value="NDWI" style="rounded=0;whiteSpace=wrap;html=1;fillColor=#ffe6cc;strokeColor=none;" vertex="1" parent="WIyWlLk6GJQsqaUBKTNV-1">
          <mxGeometry x="601" y="1087.5" width="52" height="25" as="geometry" />
        </mxCell>
        <mxCell id="CGNY96M8Sa9pFSSGAjqj-92" value="DJ Mavic 3" style="rounded=0;whiteSpace=wrap;html=1;fillColor=#ffe6cc;strokeColor=none;" vertex="1" parent="WIyWlLk6GJQsqaUBKTNV-1">
          <mxGeometry x="395" y="1087.5" width="70" height="25" as="geometry" />
        </mxCell>
        <mxCell id="CGNY96M8Sa9pFSSGAjqj-93" value="DJ M30" style="rounded=0;whiteSpace=wrap;html=1;fillColor=#ffe6cc;strokeColor=none;" vertex="1" parent="WIyWlLk6GJQsqaUBKTNV-1">
          <mxGeometry x="395" y="1120" width="70" height="25" as="geometry" />
        </mxCell>
        <mxCell id="CGNY96M8Sa9pFSSGAjqj-94" value="高分二号" style="rounded=0;whiteSpace=wrap;html=1;fillColor=#ffe6cc;strokeColor=none;" vertex="1" parent="WIyWlLk6GJQsqaUBKTNV-1">
          <mxGeometry x="400" y="1185" width="60" height="25" as="geometry" />
        </mxCell>
        <mxCell id="CGNY96M8Sa9pFSSGAjqj-95" value="高分二号" style="rounded=0;whiteSpace=wrap;html=1;fillColor=#ffe6cc;strokeColor=none;" vertex="1" parent="WIyWlLk6GJQsqaUBKTNV-1">
          <mxGeometry x="400" y="1218" width="60" height="25" as="geometry" />
        </mxCell>
        <mxCell id="CGNY96M8Sa9pFSSGAjqj-96" value="高分四号" style="rounded=0;whiteSpace=wrap;html=1;fillColor=#ffe6cc;strokeColor=none;" vertex="1" parent="WIyWlLk6GJQsqaUBKTNV-1">
          <mxGeometry x="494" y="1117.5" width="60" height="25" as="geometry" />
        </mxCell>
        <mxCell id="CGNY96M8Sa9pFSSGAjqj-97" value="高分二号" style="rounded=0;whiteSpace=wrap;html=1;fillColor=#ffe6cc;strokeColor=none;" vertex="1" parent="WIyWlLk6GJQsqaUBKTNV-1">
          <mxGeometry x="494" y="1090" width="60" height="25" as="geometry" />
        </mxCell>
        <mxCell id="CGNY96M8Sa9pFSSGAjqj-98" value="地块边界" style="sketch=0;points=[[0,0,0],[0.25,0,0],[0.5,0,0],[0.75,0,0],[1,0,0],[1,0.25,0],[1,0.5,0],[1,0.75,0],[1,1,0],[0.75,1,0],[0.5,1,0],[0.25,1,0],[0,1,0],[0,0.75,0],[0,0.5,0],[0,0.25,0]];rounded=1;absoluteArcSize=1;arcSize=2;html=1;strokeColor=none;gradientColor=none;shadow=0;dashed=0;fontSize=12;fontColor=#666666;align=center;verticalAlign=top;spacing=10;spacingTop=-4;fillColor=#FFF2CC;" vertex="1" parent="WIyWlLk6GJQsqaUBKTNV-1">
          <mxGeometry x="791.5" y="1055" width="67" height="35" as="geometry" />
        </mxCell>
        <mxCell id="CGNY96M8Sa9pFSSGAjqj-99" value="农场边界" style="sketch=0;points=[[0,0,0],[0.25,0,0],[0.5,0,0],[0.75,0,0],[1,0,0],[1,0.25,0],[1,0.5,0],[1,0.75,0],[1,1,0],[0.75,1,0],[0.5,1,0],[0.25,1,0],[0,1,0],[0,0.75,0],[0,0.5,0],[0,0.25,0]];rounded=1;absoluteArcSize=1;arcSize=2;html=1;strokeColor=none;gradientColor=none;shadow=0;dashed=0;fontSize=12;fontColor=#666666;align=center;verticalAlign=top;spacing=10;spacingTop=-4;fillColor=#FFF2CC;" vertex="1" parent="WIyWlLk6GJQsqaUBKTNV-1">
          <mxGeometry x="791.5" y="1094" width="67" height="35" as="geometry" />
        </mxCell>
        <mxCell id="CGNY96M8Sa9pFSSGAjqj-100" value="行政区划" style="sketch=0;points=[[0,0,0],[0.25,0,0],[0.5,0,0],[0.75,0,0],[1,0,0],[1,0.25,0],[1,0.5,0],[1,0.75,0],[1,1,0],[0.75,1,0],[0.5,1,0],[0.25,1,0],[0,1,0],[0,0.75,0],[0,0.5,0],[0,0.25,0]];rounded=1;absoluteArcSize=1;arcSize=2;html=1;strokeColor=none;gradientColor=none;shadow=0;dashed=0;fontSize=12;fontColor=#666666;align=center;verticalAlign=top;spacing=10;spacingTop=-4;fillColor=#FFF2CC;" vertex="1" parent="WIyWlLk6GJQsqaUBKTNV-1">
          <mxGeometry x="791.5" y="1134" width="67" height="90" as="geometry" />
        </mxCell>
        <mxCell id="CGNY96M8Sa9pFSSGAjqj-101" value="基础设施" style="sketch=0;points=[[0,0,0],[0.25,0,0],[0.5,0,0],[0.75,0,0],[1,0,0],[1,0.25,0],[1,0.5,0],[1,0.75,0],[1,1,0],[0.75,1,0],[0.5,1,0],[0.25,1,0],[0,1,0],[0,0.75,0],[0,0.5,0],[0,0.25,0]];rounded=1;absoluteArcSize=1;arcSize=2;html=1;strokeColor=none;gradientColor=none;shadow=0;dashed=0;fontSize=12;fontColor=#666666;align=center;verticalAlign=top;spacing=10;spacingTop=-4;fillColor=#FFF2CC;" vertex="1" parent="WIyWlLk6GJQsqaUBKTNV-1">
          <mxGeometry x="791.5" y="1230" width="67" height="35" as="geometry" />
        </mxCell>
        <mxCell id="CGNY96M8Sa9pFSSGAjqj-102" value="道路" style="rounded=0;whiteSpace=wrap;html=1;fillColor=#ffe6cc;strokeColor=none;" vertex="1" parent="WIyWlLk6GJQsqaUBKTNV-1">
          <mxGeometry x="799" y="1163" width="52" height="25" as="geometry" />
        </mxCell>
        <mxCell id="CGNY96M8Sa9pFSSGAjqj-103" value="水系" style="rounded=0;whiteSpace=wrap;html=1;fillColor=#ffe6cc;strokeColor=none;" vertex="1" parent="WIyWlLk6GJQsqaUBKTNV-1">
          <mxGeometry x="799" y="1193" width="52" height="25" as="geometry" />
        </mxCell>
        <mxCell id="CGNY96M8Sa9pFSSGAjqj-104" value="时间" style="rounded=0;whiteSpace=wrap;html=1;fillColor=#fcf2cf;strokeColor=none;fontStyle=1;align=left;spacingLeft=28;" vertex="1" parent="WIyWlLk6GJQsqaUBKTNV-1">
          <mxGeometry x="265" y="1290" width="730" height="35" as="geometry" />
        </mxCell>
        <mxCell id="CGNY96M8Sa9pFSSGAjqj-105" value="空间" style="rounded=0;whiteSpace=wrap;html=1;fillColor=#FCF2CF;strokeColor=none;fontStyle=1;spacingLeft=28;align=left;" vertex="1" parent="WIyWlLk6GJQsqaUBKTNV-1">
          <mxGeometry x="265" y="1340" width="730" height="30" as="geometry" />
        </mxCell>
        <mxCell id="CGNY96M8Sa9pFSSGAjqj-106" value="种植类型" style="sketch=0;points=[[0,0,0],[0.25,0,0],[0.5,0,0],[0.75,0,0],[1,0,0],[1,0.25,0],[1,0.5,0],[1,0.75,0],[1,1,0],[0.75,1,0],[0.5,1,0],[0.25,1,0],[0,1,0],[0,0.75,0],[0,0.5,0],[0,0.25,0]];rounded=1;absoluteArcSize=1;arcSize=2;html=1;strokeColor=none;gradientColor=none;shadow=0;dashed=0;fontSize=12;fontColor=#666666;align=center;verticalAlign=top;spacing=10;spacingTop=-4;fillColor=#FFF2CC;" vertex="1" parent="WIyWlLk6GJQsqaUBKTNV-1">
          <mxGeometry x="901.5" y="1057.5" width="67" height="102.5" as="geometry" />
        </mxCell>
        <mxCell id="CGNY96M8Sa9pFSSGAjqj-107" value="作物产量" style="sketch=0;points=[[0,0,0],[0.25,0,0],[0.5,0,0],[0.75,0,0],[1,0,0],[1,0.25,0],[1,0.5,0],[1,0.75,0],[1,1,0],[0.75,1,0],[0.5,1,0],[0.25,1,0],[0,1,0],[0,0.75,0],[0,0.5,0],[0,0.25,0]];rounded=1;absoluteArcSize=1;arcSize=2;html=1;strokeColor=none;gradientColor=none;shadow=0;dashed=0;fontSize=12;fontColor=#666666;align=center;verticalAlign=top;spacing=10;spacingTop=-4;fillColor=#FFF2CC;" vertex="1" parent="WIyWlLk6GJQsqaUBKTNV-1">
          <mxGeometry x="901.5" y="1170" width="67" height="95" as="geometry" />
        </mxCell>
        <mxCell id="CGNY96M8Sa9pFSSGAjqj-108" value="小麦" style="rounded=0;whiteSpace=wrap;html=1;fillColor=#ffe6cc;strokeColor=none;" vertex="1" parent="WIyWlLk6GJQsqaUBKTNV-1">
          <mxGeometry x="909" y="1091.5" width="52" height="25" as="geometry" />
        </mxCell>
        <mxCell id="CGNY96M8Sa9pFSSGAjqj-109" value="水稻" style="rounded=0;whiteSpace=wrap;html=1;fillColor=#ffe6cc;strokeColor=none;" vertex="1" parent="WIyWlLk6GJQsqaUBKTNV-1">
          <mxGeometry x="909" y="1125" width="52" height="25" as="geometry" />
        </mxCell>
        <mxCell id="CGNY96M8Sa9pFSSGAjqj-110" value="玉米" style="rounded=0;whiteSpace=wrap;html=1;fillColor=#ffe6cc;strokeColor=none;" vertex="1" parent="WIyWlLk6GJQsqaUBKTNV-1">
          <mxGeometry x="909" y="1199" width="52" height="25" as="geometry" />
        </mxCell>
        <mxCell id="CGNY96M8Sa9pFSSGAjqj-111" value="大豆" style="rounded=0;whiteSpace=wrap;html=1;fillColor=#ffe6cc;strokeColor=none;" vertex="1" parent="WIyWlLk6GJQsqaUBKTNV-1">
          <mxGeometry x="909" y="1232.5" width="52" height="25" as="geometry" />
        </mxCell>
        <mxCell id="CGNY96M8Sa9pFSSGAjqj-118" value="矢量数据" style="sketch=0;points=[[0,0,0],[0.25,0,0],[0.5,0,0],[0.75,0,0],[1,0,0],[1,0.25,0],[1,0.5,0],[1,0.75,0],[1,1,0],[0.75,1,0],[0.5,1,0],[0.25,1,0],[0,1,0],[0,0.75,0],[0,0.5,0],[0,0.25,0]];rounded=1;absoluteArcSize=1;arcSize=2;html=1;strokeColor=none;gradientColor=none;shadow=0;dashed=0;fontSize=12;fontColor=#666666;align=left;verticalAlign=top;spacing=10;spacingTop=-4;fillColor=#fef8e2;" vertex="1" parent="WIyWlLk6GJQsqaUBKTNV-1">
          <mxGeometry x="265" y="524" width="675" height="180" as="geometry" />
        </mxCell>
        <mxCell id="CGNY96M8Sa9pFSSGAjqj-154" style="edgeStyle=orthogonalEdgeStyle;rounded=0;orthogonalLoop=1;jettySize=auto;html=1;exitX=1;exitY=0.5;exitDx=0;exitDy=0;exitPerimeter=0;entryX=0;entryY=0.5;entryDx=0;entryDy=0;entryPerimeter=0;fontColor=#FFFFCC;strokeColor=#666666;" edge="1" parent="WIyWlLk6GJQsqaUBKTNV-1" source="CGNY96M8Sa9pFSSGAjqj-119" target="CGNY96M8Sa9pFSSGAjqj-120">
          <mxGeometry relative="1" as="geometry" />
        </mxCell>
        <mxCell id="CGNY96M8Sa9pFSSGAjqj-119" value="规则标签配置" style="sketch=0;points=[[0,0,0],[0.25,0,0],[0.5,0,0],[0.75,0,0],[1,0,0],[1,0.25,0],[1,0.5,0],[1,0.75,0],[1,1,0],[0.75,1,0],[0.5,1,0],[0.25,1,0],[0,1,0],[0,0.75,0],[0,0.5,0],[0,0.25,0]];rounded=1;absoluteArcSize=1;arcSize=2;html=1;strokeColor=none;gradientColor=none;shadow=0;dashed=0;fontSize=12;fontColor=#666666;align=center;verticalAlign=top;spacing=10;spacingTop=-6;fillColor=#D4E1F5;" vertex="1" parent="WIyWlLk6GJQsqaUBKTNV-1">
          <mxGeometry x="314" y="561" width="91" height="30" as="geometry" />
        </mxCell>
        <mxCell id="CGNY96M8Sa9pFSSGAjqj-155" style="edgeStyle=orthogonalEdgeStyle;rounded=0;orthogonalLoop=1;jettySize=auto;html=1;exitX=1;exitY=0.5;exitDx=0;exitDy=0;exitPerimeter=0;entryX=0;entryY=0.5;entryDx=0;entryDy=0;entryPerimeter=0;fontColor=#FFFFCC;strokeColor=#666666;" edge="1" parent="WIyWlLk6GJQsqaUBKTNV-1" source="CGNY96M8Sa9pFSSGAjqj-120" target="CGNY96M8Sa9pFSSGAjqj-125">
          <mxGeometry relative="1" as="geometry" />
        </mxCell>
        <mxCell id="CGNY96M8Sa9pFSSGAjqj-120" value="上传" style="sketch=0;points=[[0,0,0],[0.25,0,0],[0.5,0,0],[0.75,0,0],[1,0,0],[1,0.25,0],[1,0.5,0],[1,0.75,0],[1,1,0],[0.75,1,0],[0.5,1,0],[0.25,1,0],[0,1,0],[0,0.75,0],[0,0.5,0],[0,0.25,0]];rounded=1;absoluteArcSize=1;arcSize=2;html=1;strokeColor=none;gradientColor=none;shadow=0;dashed=0;fontSize=12;fontColor=#666666;align=center;verticalAlign=top;spacing=10;spacingTop=-4;fillColor=#D4E1F5;" vertex="1" parent="WIyWlLk6GJQsqaUBKTNV-1">
          <mxGeometry x="422.5" y="561" width="80" height="30" as="geometry" />
        </mxCell>
        <mxCell id="CGNY96M8Sa9pFSSGAjqj-164" style="edgeStyle=orthogonalEdgeStyle;rounded=0;orthogonalLoop=1;jettySize=auto;html=1;exitX=0;exitY=0.5;exitDx=0;exitDy=0;exitPerimeter=0;entryX=0;entryY=0.5;entryDx=0;entryDy=0;entryPerimeter=0;fontColor=#FFFFCC;strokeColor=none;endArrow=none;endFill=0;" edge="1" parent="WIyWlLk6GJQsqaUBKTNV-1" source="CGNY96M8Sa9pFSSGAjqj-121" target="CGNY96M8Sa9pFSSGAjqj-122">
          <mxGeometry relative="1" as="geometry" />
        </mxCell>
        <mxCell id="CGNY96M8Sa9pFSSGAjqj-178" style="edgeStyle=orthogonalEdgeStyle;rounded=0;orthogonalLoop=1;jettySize=auto;html=1;exitX=0;exitY=0.5;exitDx=0;exitDy=0;exitPerimeter=0;entryX=1;entryY=0.5;entryDx=0;entryDy=0;entryPerimeter=0;fontColor=#FFFFCC;endArrow=classic;endFill=1;strokeColor=#666666;" edge="1" parent="WIyWlLk6GJQsqaUBKTNV-1" source="CGNY96M8Sa9pFSSGAjqj-121" target="CGNY96M8Sa9pFSSGAjqj-123">
          <mxGeometry relative="1" as="geometry" />
        </mxCell>
        <mxCell id="CGNY96M8Sa9pFSSGAjqj-121" value="入库" style="sketch=0;points=[[0,0,0],[0.25,0,0],[0.5,0,0],[0.75,0,0],[1,0,0],[1,0.25,0],[1,0.5,0],[1,0.75,0],[1,1,0],[0.75,1,0],[0.5,1,0],[0.25,1,0],[0,1,0],[0,0.75,0],[0,0.5,0],[0,0.25,0]];rounded=1;absoluteArcSize=1;arcSize=2;html=1;strokeColor=none;gradientColor=none;shadow=0;dashed=0;fontSize=12;fontColor=#666666;align=center;verticalAlign=top;spacing=10;spacingTop=-6;fillColor=#D4E1F5;" vertex="1" parent="WIyWlLk6GJQsqaUBKTNV-1">
          <mxGeometry x="808.5" y="611" width="80" height="30" as="geometry" />
        </mxCell>
        <mxCell id="CGNY96M8Sa9pFSSGAjqj-177" style="edgeStyle=orthogonalEdgeStyle;rounded=0;orthogonalLoop=1;jettySize=auto;html=1;exitX=0;exitY=0.5;exitDx=0;exitDy=0;exitPerimeter=0;entryX=1;entryY=0.5;entryDx=0;entryDy=0;entryPerimeter=0;fontColor=#FFFFCC;endArrow=classic;endFill=1;strokeColor=#666666;" edge="1" parent="WIyWlLk6GJQsqaUBKTNV-1" source="CGNY96M8Sa9pFSSGAjqj-122" target="CGNY96M8Sa9pFSSGAjqj-127">
          <mxGeometry relative="1" as="geometry" />
        </mxCell>
        <mxCell id="CGNY96M8Sa9pFSSGAjqj-122" value="不入库" style="sketch=0;points=[[0,0,0],[0.25,0,0],[0.5,0,0],[0.75,0,0],[1,0,0],[1,0.25,0],[1,0.5,0],[1,0.75,0],[1,1,0],[0.75,1,0],[0.5,1,0],[0.25,1,0],[0,1,0],[0,0.75,0],[0,0.5,0],[0,0.25,0]];rounded=1;absoluteArcSize=1;arcSize=2;html=1;strokeColor=none;gradientColor=none;shadow=0;dashed=0;fontSize=12;fontColor=#666666;align=center;verticalAlign=top;spacing=10;spacingTop=-6;fillColor=#D4E1F5;" vertex="1" parent="WIyWlLk6GJQsqaUBKTNV-1">
          <mxGeometry x="808.5" y="661" width="80" height="30" as="geometry" />
        </mxCell>
        <mxCell id="CGNY96M8Sa9pFSSGAjqj-179" style="edgeStyle=orthogonalEdgeStyle;rounded=0;orthogonalLoop=1;jettySize=auto;html=1;exitX=0;exitY=0.5;exitDx=0;exitDy=0;exitPerimeter=0;entryX=1;entryY=0.5;entryDx=0;entryDy=0;entryPerimeter=0;fontColor=#FFFFCC;endArrow=classic;endFill=1;strokeColor=#666666;" edge="1" parent="WIyWlLk6GJQsqaUBKTNV-1" source="CGNY96M8Sa9pFSSGAjqj-123" target="CGNY96M8Sa9pFSSGAjqj-124">
          <mxGeometry relative="1" as="geometry" />
        </mxCell>
        <mxCell id="CGNY96M8Sa9pFSSGAjqj-123" value="选择目标库表" style="sketch=0;points=[[0,0,0],[0.25,0,0],[0.5,0,0],[0.75,0,0],[1,0,0],[1,0.25,0],[1,0.5,0],[1,0.75,0],[1,1,0],[0.75,1,0],[0.5,1,0],[0.25,1,0],[0,1,0],[0,0.75,0],[0,0.5,0],[0,0.25,0]];rounded=1;absoluteArcSize=1;arcSize=2;html=1;strokeColor=none;gradientColor=none;shadow=0;dashed=0;fontSize=12;fontColor=#666666;align=center;verticalAlign=top;spacing=10;spacingTop=-6;fillColor=#D4E1F5;" vertex="1" parent="WIyWlLk6GJQsqaUBKTNV-1">
          <mxGeometry x="688.5" y="611" width="87" height="30" as="geometry" />
        </mxCell>
        <mxCell id="CGNY96M8Sa9pFSSGAjqj-181" style="edgeStyle=orthogonalEdgeStyle;rounded=0;orthogonalLoop=1;jettySize=auto;html=1;exitX=0;exitY=0.5;exitDx=0;exitDy=0;exitPerimeter=0;entryX=1;entryY=0.5;entryDx=0;entryDy=0;entryPerimeter=0;fontColor=#FFFFCC;endArrow=classic;endFill=1;strokeColor=#666666;" edge="1" parent="WIyWlLk6GJQsqaUBKTNV-1" source="CGNY96M8Sa9pFSSGAjqj-124" target="CGNY96M8Sa9pFSSGAjqj-126">
          <mxGeometry relative="1" as="geometry" />
        </mxCell>
        <mxCell id="CGNY96M8Sa9pFSSGAjqj-124" value="字段映射配置" style="sketch=0;points=[[0,0,0],[0.25,0,0],[0.5,0,0],[0.75,0,0],[1,0,0],[1,0.25,0],[1,0.5,0],[1,0.75,0],[1,1,0],[0.75,1,0],[0.5,1,0],[0.25,1,0],[0,1,0],[0,0.75,0],[0,0.5,0],[0,0.25,0]];rounded=1;absoluteArcSize=1;arcSize=2;html=1;strokeColor=none;gradientColor=none;shadow=0;dashed=0;fontSize=12;fontColor=#666666;align=center;verticalAlign=top;spacing=10;spacingTop=-6;fillColor=#D4E1F5;" vertex="1" parent="WIyWlLk6GJQsqaUBKTNV-1">
          <mxGeometry x="579.5" y="611" width="87" height="30" as="geometry" />
        </mxCell>
        <mxCell id="CGNY96M8Sa9pFSSGAjqj-156" style="edgeStyle=orthogonalEdgeStyle;rounded=0;orthogonalLoop=1;jettySize=auto;html=1;exitX=1;exitY=0.5;exitDx=0;exitDy=0;exitPerimeter=0;entryX=0;entryY=0.5;entryDx=0;entryDy=0;entryPerimeter=0;fontColor=#FFFFCC;strokeColor=#666666;" edge="1" parent="WIyWlLk6GJQsqaUBKTNV-1" source="CGNY96M8Sa9pFSSGAjqj-125" target="CGNY96M8Sa9pFSSGAjqj-138">
          <mxGeometry relative="1" as="geometry" />
        </mxCell>
        <mxCell id="CGNY96M8Sa9pFSSGAjqj-125" value="有效性校验" style="sketch=0;points=[[0,0,0],[0.25,0,0],[0.5,0,0],[0.75,0,0],[1,0,0],[1,0.25,0],[1,0.5,0],[1,0.75,0],[1,1,0],[0.75,1,0],[0.5,1,0],[0.25,1,0],[0,1,0],[0,0.75,0],[0,0.5,0],[0,0.25,0]];rounded=1;absoluteArcSize=1;arcSize=2;html=1;strokeColor=none;gradientColor=none;shadow=0;dashed=0;fontSize=12;fontColor=#666666;align=center;verticalAlign=top;spacing=10;spacingTop=-4;fillColor=#D4E1F5;" vertex="1" parent="WIyWlLk6GJQsqaUBKTNV-1">
          <mxGeometry x="517.5" y="561" width="80" height="30" as="geometry" />
        </mxCell>
        <mxCell id="CGNY96M8Sa9pFSSGAjqj-180" style="edgeStyle=orthogonalEdgeStyle;rounded=0;orthogonalLoop=1;jettySize=auto;html=1;exitX=0;exitY=0.5;exitDx=0;exitDy=0;exitPerimeter=0;entryX=1;entryY=0.5;entryDx=0;entryDy=0;entryPerimeter=0;fontColor=#FFFFCC;endArrow=classic;endFill=1;strokeColor=#666666;" edge="1" parent="WIyWlLk6GJQsqaUBKTNV-1" source="CGNY96M8Sa9pFSSGAjqj-126" target="CGNY96M8Sa9pFSSGAjqj-140">
          <mxGeometry relative="1" as="geometry" />
        </mxCell>
        <mxCell id="CGNY96M8Sa9pFSSGAjqj-126" value="是否自动发布地图服务" style="sketch=0;points=[[0,0,0],[0.25,0,0],[0.5,0,0],[0.75,0,0],[1,0,0],[1,0.25,0],[1,0.5,0],[1,0.75,0],[1,1,0],[0.75,1,0],[0.5,1,0],[0.25,1,0],[0,1,0],[0,0.75,0],[0,0.5,0],[0,0.25,0]];rounded=1;absoluteArcSize=1;arcSize=2;html=1;strokeColor=none;gradientColor=none;shadow=0;dashed=0;fontSize=12;fontColor=#666666;align=center;verticalAlign=top;spacing=10;spacingTop=-6;fillColor=#E4F1F1;" vertex="1" parent="WIyWlLk6GJQsqaUBKTNV-1">
          <mxGeometry x="394" y="637" width="147" height="30" as="geometry" />
        </mxCell>
        <mxCell id="CGNY96M8Sa9pFSSGAjqj-182" style="edgeStyle=orthogonalEdgeStyle;rounded=0;orthogonalLoop=1;jettySize=auto;html=1;exitX=0;exitY=0.5;exitDx=0;exitDy=0;exitPerimeter=0;entryX=1;entryY=0.5;entryDx=0;entryDy=0;entryPerimeter=0;fontColor=#FFFFCC;endArrow=classic;endFill=1;strokeColor=#666666;" edge="1" parent="WIyWlLk6GJQsqaUBKTNV-1" source="CGNY96M8Sa9pFSSGAjqj-127" target="CGNY96M8Sa9pFSSGAjqj-126">
          <mxGeometry relative="1" as="geometry" />
        </mxCell>
        <mxCell id="CGNY96M8Sa9pFSSGAjqj-127" value="落入磁盘(NAS)" style="sketch=0;points=[[0,0,0],[0.25,0,0],[0.5,0,0],[0.75,0,0],[1,0,0],[1,0.25,0],[1,0.5,0],[1,0.75,0],[1,1,0],[0.75,1,0],[0.5,1,0],[0.25,1,0],[0,1,0],[0,0.75,0],[0,0.5,0],[0,0.25,0]];rounded=1;absoluteArcSize=1;arcSize=2;html=1;strokeColor=none;gradientColor=none;shadow=0;dashed=0;fontSize=12;fontColor=#666666;align=center;verticalAlign=top;spacing=10;spacingTop=-6;fillColor=#D4E1F5;" vertex="1" parent="WIyWlLk6GJQsqaUBKTNV-1">
          <mxGeometry x="579.5" y="661" width="95" height="30" as="geometry" />
        </mxCell>
        <mxCell id="CGNY96M8Sa9pFSSGAjqj-157" style="edgeStyle=orthogonalEdgeStyle;rounded=0;orthogonalLoop=1;jettySize=auto;html=1;exitX=1;exitY=0.5;exitDx=0;exitDy=0;exitPerimeter=0;entryX=0;entryY=0.5;entryDx=0;entryDy=0;entryPerimeter=0;fontColor=#FFFFCC;strokeColor=#666666;" edge="1" parent="WIyWlLk6GJQsqaUBKTNV-1" source="CGNY96M8Sa9pFSSGAjqj-138" target="CGNY96M8Sa9pFSSGAjqj-139">
          <mxGeometry relative="1" as="geometry" />
        </mxCell>
        <mxCell id="CGNY96M8Sa9pFSSGAjqj-138" value="事实标签自动获取" style="sketch=0;points=[[0,0,0],[0.25,0,0],[0.5,0,0],[0.75,0,0],[1,0,0],[1,0.25,0],[1,0.5,0],[1,0.75,0],[1,1,0],[0.75,1,0],[0.5,1,0],[0.25,1,0],[0,1,0],[0,0.75,0],[0,0.5,0],[0,0.25,0]];rounded=1;absoluteArcSize=1;arcSize=2;html=1;strokeColor=none;gradientColor=none;shadow=0;dashed=0;fontSize=12;fontColor=#666666;align=center;verticalAlign=top;spacing=10;spacingTop=-4;fillColor=#D4E1F5;" vertex="1" parent="WIyWlLk6GJQsqaUBKTNV-1">
          <mxGeometry x="617.5" y="561" width="110" height="30" as="geometry" />
        </mxCell>
        <mxCell id="CGNY96M8Sa9pFSSGAjqj-175" style="edgeStyle=orthogonalEdgeStyle;rounded=0;orthogonalLoop=1;jettySize=auto;html=1;exitX=1;exitY=0.5;exitDx=0;exitDy=0;exitPerimeter=0;entryX=1;entryY=0.5;entryDx=0;entryDy=0;entryPerimeter=0;fontColor=#FFFFCC;endArrow=classic;endFill=1;strokeColor=#666666;" edge="1" parent="WIyWlLk6GJQsqaUBKTNV-1" source="CGNY96M8Sa9pFSSGAjqj-139" target="CGNY96M8Sa9pFSSGAjqj-121">
          <mxGeometry relative="1" as="geometry">
            <Array as="points">
              <mxPoint x="924" y="576" />
              <mxPoint x="924" y="626" />
            </Array>
          </mxGeometry>
        </mxCell>
        <mxCell id="CGNY96M8Sa9pFSSGAjqj-176" style="edgeStyle=orthogonalEdgeStyle;rounded=0;orthogonalLoop=1;jettySize=auto;html=1;exitX=1;exitY=0.5;exitDx=0;exitDy=0;exitPerimeter=0;entryX=1;entryY=0.5;entryDx=0;entryDy=0;entryPerimeter=0;fontColor=#FFFFCC;endArrow=classic;endFill=1;strokeColor=#666666;" edge="1" parent="WIyWlLk6GJQsqaUBKTNV-1" source="CGNY96M8Sa9pFSSGAjqj-139" target="CGNY96M8Sa9pFSSGAjqj-122">
          <mxGeometry relative="1" as="geometry">
            <Array as="points">
              <mxPoint x="924" y="576" />
              <mxPoint x="924" y="676" />
            </Array>
          </mxGeometry>
        </mxCell>
        <mxCell id="CGNY96M8Sa9pFSSGAjqj-139" value="是否入库？" style="sketch=0;points=[[0,0,0],[0.25,0,0],[0.5,0,0],[0.75,0,0],[1,0,0],[1,0.25,0],[1,0.5,0],[1,0.75,0],[1,1,0],[0.75,1,0],[0.5,1,0],[0.25,1,0],[0,1,0],[0,0.75,0],[0,0.5,0],[0,0.25,0]];rounded=1;absoluteArcSize=1;arcSize=2;html=1;strokeColor=none;gradientColor=none;shadow=0;dashed=0;fontSize=12;fontColor=#666666;align=center;verticalAlign=top;spacing=10;spacingTop=-4;fillColor=#D4E1F5;" vertex="1" parent="WIyWlLk6GJQsqaUBKTNV-1">
          <mxGeometry x="747.5" y="561" width="110" height="30" as="geometry" />
        </mxCell>
        <mxCell id="CGNY96M8Sa9pFSSGAjqj-140" value="图层" style="sketch=0;points=[[0,0,0],[0.25,0,0],[0.5,0,0],[0.75,0,0],[1,0,0],[1,0.25,0],[1,0.5,0],[1,0.75,0],[1,1,0],[0.75,1,0],[0.5,1,0],[0.25,1,0],[0,1,0],[0,0.75,0],[0,0.5,0],[0,0.25,0]];rounded=1;absoluteArcSize=1;arcSize=2;html=1;strokeColor=none;gradientColor=none;shadow=0;dashed=0;fontSize=12;fontColor=#666666;align=center;verticalAlign=top;spacing=10;spacingTop=-6;fillColor=#e4f1f1;" vertex="1" parent="WIyWlLk6GJQsqaUBKTNV-1">
          <mxGeometry x="316" y="637" width="53" height="30" as="geometry" />
        </mxCell>
        <mxCell id="CGNY96M8Sa9pFSSGAjqj-141" value="影像数据" style="sketch=0;points=[[0,0,0],[0.25,0,0],[0.5,0,0],[0.75,0,0],[1,0,0],[1,0.25,0],[1,0.5,0],[1,0.75,0],[1,1,0],[0.75,1,0],[0.5,1,0],[0.25,1,0],[0,1,0],[0,0.75,0],[0,0.5,0],[0,0.25,0]];rounded=1;absoluteArcSize=1;arcSize=2;html=1;strokeColor=none;gradientColor=none;shadow=0;dashed=0;fontSize=12;fontColor=#666666;align=left;verticalAlign=top;spacing=10;spacingTop=-4;fillColor=#FEF8E2;" vertex="1" parent="WIyWlLk6GJQsqaUBKTNV-1">
          <mxGeometry x="265" y="714" width="675" height="190" as="geometry" />
        </mxCell>
        <mxCell id="CGNY96M8Sa9pFSSGAjqj-183" style="edgeStyle=orthogonalEdgeStyle;rounded=0;orthogonalLoop=1;jettySize=auto;html=1;exitX=1;exitY=0.5;exitDx=0;exitDy=0;exitPerimeter=0;entryX=0;entryY=0.5;entryDx=0;entryDy=0;entryPerimeter=0;fontColor=#FFFFCC;endArrow=classic;endFill=1;strokeColor=#666666;" edge="1" parent="WIyWlLk6GJQsqaUBKTNV-1" source="CGNY96M8Sa9pFSSGAjqj-142" target="CGNY96M8Sa9pFSSGAjqj-143">
          <mxGeometry relative="1" as="geometry" />
        </mxCell>
        <mxCell id="CGNY96M8Sa9pFSSGAjqj-142" value="规则标签配置" style="sketch=0;points=[[0,0,0],[0.25,0,0],[0.5,0,0],[0.75,0,0],[1,0,0],[1,0.25,0],[1,0.5,0],[1,0.75,0],[1,1,0],[0.75,1,0],[0.5,1,0],[0.25,1,0],[0,1,0],[0,0.75,0],[0,0.5,0],[0,0.25,0]];rounded=1;absoluteArcSize=1;arcSize=2;html=1;strokeColor=none;gradientColor=none;shadow=0;dashed=0;fontSize=12;fontColor=#666666;align=center;verticalAlign=top;spacing=10;spacingTop=-4;fillColor=#D4E1F5;" vertex="1" parent="WIyWlLk6GJQsqaUBKTNV-1">
          <mxGeometry x="301" y="751.5" width="84" height="30" as="geometry" />
        </mxCell>
        <mxCell id="CGNY96M8Sa9pFSSGAjqj-184" style="edgeStyle=orthogonalEdgeStyle;rounded=0;orthogonalLoop=1;jettySize=auto;html=1;exitX=1;exitY=0.5;exitDx=0;exitDy=0;exitPerimeter=0;entryX=0;entryY=0.5;entryDx=0;entryDy=0;entryPerimeter=0;fontColor=#FFFFCC;endArrow=classic;endFill=1;strokeColor=#666666;" edge="1" parent="WIyWlLk6GJQsqaUBKTNV-1" source="CGNY96M8Sa9pFSSGAjqj-143" target="CGNY96M8Sa9pFSSGAjqj-148">
          <mxGeometry relative="1" as="geometry" />
        </mxCell>
        <mxCell id="CGNY96M8Sa9pFSSGAjqj-143" value="上传" style="sketch=0;points=[[0,0,0],[0.25,0,0],[0.5,0,0],[0.75,0,0],[1,0,0],[1,0.25,0],[1,0.5,0],[1,0.75,0],[1,1,0],[0.75,1,0],[0.5,1,0],[0.25,1,0],[0,1,0],[0,0.75,0],[0,0.5,0],[0,0.25,0]];rounded=1;absoluteArcSize=1;arcSize=2;html=1;strokeColor=none;gradientColor=none;shadow=0;dashed=0;fontSize=12;fontColor=#666666;align=center;verticalAlign=top;spacing=10;spacingTop=-4;fillColor=#D4E1F5;" vertex="1" parent="WIyWlLk6GJQsqaUBKTNV-1">
          <mxGeometry x="412.5" y="751.5" width="80" height="30" as="geometry" />
        </mxCell>
        <mxCell id="CGNY96M8Sa9pFSSGAjqj-185" style="edgeStyle=orthogonalEdgeStyle;rounded=0;orthogonalLoop=1;jettySize=auto;html=1;exitX=1;exitY=0.5;exitDx=0;exitDy=0;exitPerimeter=0;entryX=0;entryY=0.5;entryDx=0;entryDy=0;entryPerimeter=0;fontColor=#FFFFCC;endArrow=classic;endFill=1;strokeColor=#666666;" edge="1" parent="WIyWlLk6GJQsqaUBKTNV-1" source="CGNY96M8Sa9pFSSGAjqj-148" target="CGNY96M8Sa9pFSSGAjqj-151">
          <mxGeometry relative="1" as="geometry" />
        </mxCell>
        <mxCell id="CGNY96M8Sa9pFSSGAjqj-148" value="有效性校验" style="sketch=0;points=[[0,0,0],[0.25,0,0],[0.5,0,0],[0.75,0,0],[1,0,0],[1,0.25,0],[1,0.5,0],[1,0.75,0],[1,1,0],[0.75,1,0],[0.5,1,0],[0.25,1,0],[0,1,0],[0,0.75,0],[0,0.5,0],[0,0.25,0]];rounded=1;absoluteArcSize=1;arcSize=2;html=1;strokeColor=none;gradientColor=none;shadow=0;dashed=0;fontSize=12;fontColor=#666666;align=center;verticalAlign=top;spacing=10;spacingTop=-4;fillColor=#D4E1F5;" vertex="1" parent="WIyWlLk6GJQsqaUBKTNV-1">
          <mxGeometry x="516" y="751.5" width="80" height="30" as="geometry" />
        </mxCell>
        <mxCell id="CGNY96M8Sa9pFSSGAjqj-200" style="edgeStyle=orthogonalEdgeStyle;rounded=0;orthogonalLoop=1;jettySize=auto;html=1;exitX=0;exitY=0.5;exitDx=0;exitDy=0;exitPerimeter=0;entryX=1;entryY=0.5;entryDx=0;entryDy=0;entryPerimeter=0;fontColor=#FFFFCC;endArrow=classic;endFill=1;strokeColor=#666666;" edge="1" parent="WIyWlLk6GJQsqaUBKTNV-1" source="CGNY96M8Sa9pFSSGAjqj-149" target="CGNY96M8Sa9pFSSGAjqj-199">
          <mxGeometry relative="1" as="geometry" />
        </mxCell>
        <mxCell id="CGNY96M8Sa9pFSSGAjqj-149" value="是否自动发布地图服务" style="sketch=0;points=[[0,0,0],[0.25,0,0],[0.5,0,0],[0.75,0,0],[1,0,0],[1,0.25,0],[1,0.5,0],[1,0.75,0],[1,1,0],[0.75,1,0],[0.5,1,0],[0.25,1,0],[0,1,0],[0,0.75,0],[0,0.5,0],[0,0.25,0]];rounded=1;absoluteArcSize=1;arcSize=2;html=1;strokeColor=none;gradientColor=none;shadow=0;dashed=0;fontSize=12;fontColor=#666666;align=center;verticalAlign=top;spacing=10;spacingTop=-6;fillColor=#e4f1f1;" vertex="1" parent="WIyWlLk6GJQsqaUBKTNV-1">
          <mxGeometry x="367" y="835" width="140" height="30" as="geometry" />
        </mxCell>
        <mxCell id="CGNY96M8Sa9pFSSGAjqj-186" style="edgeStyle=orthogonalEdgeStyle;rounded=0;orthogonalLoop=1;jettySize=auto;html=1;exitX=1;exitY=0.5;exitDx=0;exitDy=0;exitPerimeter=0;entryX=0;entryY=0.5;entryDx=0;entryDy=0;entryPerimeter=0;fontColor=#FFFFCC;endArrow=classic;endFill=1;strokeColor=#666666;" edge="1" parent="WIyWlLk6GJQsqaUBKTNV-1" source="CGNY96M8Sa9pFSSGAjqj-151" target="CGNY96M8Sa9pFSSGAjqj-152">
          <mxGeometry relative="1" as="geometry" />
        </mxCell>
        <mxCell id="CGNY96M8Sa9pFSSGAjqj-151" value="事实标签自动获取" style="sketch=0;points=[[0,0,0],[0.25,0,0],[0.5,0,0],[0.75,0,0],[1,0,0],[1,0.25,0],[1,0.5,0],[1,0.75,0],[1,1,0],[0.75,1,0],[0.5,1,0],[0.25,1,0],[0,1,0],[0,0.75,0],[0,0.5,0],[0,0.25,0]];rounded=1;absoluteArcSize=1;arcSize=2;html=1;strokeColor=none;gradientColor=none;shadow=0;dashed=0;fontSize=12;fontColor=#666666;align=center;verticalAlign=top;spacing=10;spacingTop=-4;fillColor=#D4E1F5;" vertex="1" parent="WIyWlLk6GJQsqaUBKTNV-1">
          <mxGeometry x="626" y="751.5" width="110" height="30" as="geometry" />
        </mxCell>
        <mxCell id="CGNY96M8Sa9pFSSGAjqj-196" style="edgeStyle=orthogonalEdgeStyle;rounded=0;orthogonalLoop=1;jettySize=auto;html=1;exitX=1;exitY=0.5;exitDx=0;exitDy=0;exitPerimeter=0;entryX=1;entryY=0.5;entryDx=0;entryDy=0;entryPerimeter=0;fontColor=#FFFFCC;endArrow=classic;endFill=1;strokeColor=#666666;" edge="1" parent="WIyWlLk6GJQsqaUBKTNV-1" source="CGNY96M8Sa9pFSSGAjqj-152" target="CGNY96M8Sa9pFSSGAjqj-187">
          <mxGeometry relative="1" as="geometry">
            <Array as="points">
              <mxPoint x="930" y="767" />
              <mxPoint x="930" y="824" />
            </Array>
          </mxGeometry>
        </mxCell>
        <mxCell id="CGNY96M8Sa9pFSSGAjqj-197" style="edgeStyle=orthogonalEdgeStyle;rounded=0;orthogonalLoop=1;jettySize=auto;html=1;exitX=1;exitY=0.5;exitDx=0;exitDy=0;exitPerimeter=0;entryX=1;entryY=0.5;entryDx=0;entryDy=0;entryPerimeter=0;fontColor=#FFFFCC;endArrow=classic;endFill=1;strokeColor=#666666;" edge="1" parent="WIyWlLk6GJQsqaUBKTNV-1" source="CGNY96M8Sa9pFSSGAjqj-152" target="CGNY96M8Sa9pFSSGAjqj-188">
          <mxGeometry relative="1" as="geometry">
            <Array as="points">
              <mxPoint x="930" y="767" />
              <mxPoint x="930" y="874" />
            </Array>
          </mxGeometry>
        </mxCell>
        <mxCell id="CGNY96M8Sa9pFSSGAjqj-152" value="需要预处理操作" style="sketch=0;points=[[0,0,0],[0.25,0,0],[0.5,0,0],[0.75,0,0],[1,0,0],[1,0.25,0],[1,0.5,0],[1,0.75,0],[1,1,0],[0.75,1,0],[0.5,1,0],[0.25,1,0],[0,1,0],[0,0.75,0],[0,0.5,0],[0,0.25,0]];rounded=1;absoluteArcSize=1;arcSize=2;html=1;strokeColor=none;gradientColor=none;shadow=0;dashed=0;fontSize=12;fontColor=#666666;align=center;verticalAlign=top;spacing=10;spacingTop=-4;fillColor=#D4E1F5;" vertex="1" parent="WIyWlLk6GJQsqaUBKTNV-1">
          <mxGeometry x="756.5" y="751.5" width="110" height="30" as="geometry" />
        </mxCell>
        <mxCell id="CGNY96M8Sa9pFSSGAjqj-192" style="edgeStyle=orthogonalEdgeStyle;rounded=0;orthogonalLoop=1;jettySize=auto;html=1;exitX=0;exitY=0.5;exitDx=0;exitDy=0;exitPerimeter=0;fontColor=#FFFFCC;endArrow=classic;endFill=1;strokeColor=#666666;" edge="1" parent="WIyWlLk6GJQsqaUBKTNV-1" source="CGNY96M8Sa9pFSSGAjqj-153" target="CGNY96M8Sa9pFSSGAjqj-191">
          <mxGeometry relative="1" as="geometry" />
        </mxCell>
        <mxCell id="CGNY96M8Sa9pFSSGAjqj-153" value="调用 AgriEdge 相关服务" style="sketch=0;points=[[0,0,0],[0.25,0,0],[0.5,0,0],[0.75,0,0],[1,0,0],[1,0.25,0],[1,0.5,0],[1,0.75,0],[1,1,0],[0.75,1,0],[0.5,1,0],[0.25,1,0],[0,1,0],[0,0.75,0],[0,0.5,0],[0,0.25,0]];rounded=1;absoluteArcSize=1;arcSize=2;html=1;strokeColor=none;gradientColor=none;shadow=0;dashed=0;fontSize=12;fontColor=#666666;align=center;verticalAlign=top;spacing=10;spacingTop=-4;fillColor=#D4E1F5;" vertex="1" parent="WIyWlLk6GJQsqaUBKTNV-1">
          <mxGeometry x="661" y="809" width="136" height="30" as="geometry" />
        </mxCell>
        <mxCell id="CGNY96M8Sa9pFSSGAjqj-189" style="edgeStyle=orthogonalEdgeStyle;rounded=0;orthogonalLoop=1;jettySize=auto;html=1;exitX=0;exitY=0.5;exitDx=0;exitDy=0;exitPerimeter=0;entryX=1;entryY=0.5;entryDx=0;entryDy=0;entryPerimeter=0;fontColor=#FFFFCC;endArrow=classic;endFill=1;strokeColor=#666666;" edge="1" parent="WIyWlLk6GJQsqaUBKTNV-1" source="CGNY96M8Sa9pFSSGAjqj-187" target="CGNY96M8Sa9pFSSGAjqj-153">
          <mxGeometry relative="1" as="geometry" />
        </mxCell>
        <mxCell id="CGNY96M8Sa9pFSSGAjqj-187" value="需要" style="sketch=0;points=[[0,0,0],[0.25,0,0],[0.5,0,0],[0.75,0,0],[1,0,0],[1,0.25,0],[1,0.5,0],[1,0.75,0],[1,1,0],[0.75,1,0],[0.5,1,0],[0.25,1,0],[0,1,0],[0,0.75,0],[0,0.5,0],[0,0.25,0]];rounded=1;absoluteArcSize=1;arcSize=2;html=1;strokeColor=none;gradientColor=none;shadow=0;dashed=0;fontSize=12;fontColor=#666666;align=center;verticalAlign=top;spacing=10;spacingTop=-4;fillColor=#D4E1F5;" vertex="1" parent="WIyWlLk6GJQsqaUBKTNV-1">
          <mxGeometry x="825" y="809" width="80" height="30" as="geometry" />
        </mxCell>
        <mxCell id="CGNY96M8Sa9pFSSGAjqj-210" style="edgeStyle=orthogonalEdgeStyle;rounded=0;orthogonalLoop=1;jettySize=auto;html=1;exitX=0;exitY=0.5;exitDx=0;exitDy=0;exitPerimeter=0;entryX=1;entryY=0.5;entryDx=0;entryDy=0;entryPerimeter=0;fontSize=12;fontColor=#666666;endArrow=classic;endFill=1;strokeColor=#666666;" edge="1" parent="WIyWlLk6GJQsqaUBKTNV-1" source="CGNY96M8Sa9pFSSGAjqj-188" target="CGNY96M8Sa9pFSSGAjqj-191">
          <mxGeometry relative="1" as="geometry" />
        </mxCell>
        <mxCell id="CGNY96M8Sa9pFSSGAjqj-188" value="不需要" style="sketch=0;points=[[0,0,0],[0.25,0,0],[0.5,0,0],[0.75,0,0],[1,0,0],[1,0.25,0],[1,0.5,0],[1,0.75,0],[1,1,0],[0.75,1,0],[0.5,1,0],[0.25,1,0],[0,1,0],[0,0.75,0],[0,0.5,0],[0,0.25,0]];rounded=1;absoluteArcSize=1;arcSize=2;html=1;strokeColor=none;gradientColor=none;shadow=0;dashed=0;fontSize=12;fontColor=#666666;align=center;verticalAlign=top;spacing=10;spacingTop=-4;fillColor=#D4E1F5;" vertex="1" parent="WIyWlLk6GJQsqaUBKTNV-1">
          <mxGeometry x="661" y="859" width="80" height="30" as="geometry" />
        </mxCell>
        <mxCell id="CGNY96M8Sa9pFSSGAjqj-198" style="edgeStyle=orthogonalEdgeStyle;rounded=0;orthogonalLoop=1;jettySize=auto;html=1;exitX=0;exitY=0.5;exitDx=0;exitDy=0;exitPerimeter=0;entryX=1;entryY=0.5;entryDx=0;entryDy=0;entryPerimeter=0;fontColor=#FFFFCC;endArrow=classic;endFill=1;strokeColor=#666666;" edge="1" parent="WIyWlLk6GJQsqaUBKTNV-1" source="CGNY96M8Sa9pFSSGAjqj-191" target="CGNY96M8Sa9pFSSGAjqj-149">
          <mxGeometry relative="1" as="geometry" />
        </mxCell>
        <mxCell id="CGNY96M8Sa9pFSSGAjqj-191" value="落入磁盘(NAS)" style="sketch=0;points=[[0,0,0],[0.25,0,0],[0.5,0,0],[0.75,0,0],[1,0,0],[1,0.25,0],[1,0.5,0],[1,0.75,0],[1,1,0],[0.75,1,0],[0.5,1,0],[0.25,1,0],[0,1,0],[0,0.75,0],[0,0.5,0],[0,0.25,0]];rounded=1;absoluteArcSize=1;arcSize=2;html=1;strokeColor=none;gradientColor=none;shadow=0;dashed=0;fontSize=12;fontColor=#666666;align=center;verticalAlign=top;spacing=10;spacingTop=-4;fillColor=#D4E1F5;" vertex="1" parent="WIyWlLk6GJQsqaUBKTNV-1">
          <mxGeometry x="522" y="835" width="95" height="30" as="geometry" />
        </mxCell>
        <mxCell id="CGNY96M8Sa9pFSSGAjqj-199" value="图层" style="sketch=0;points=[[0,0,0],[0.25,0,0],[0.5,0,0],[0.75,0,0],[1,0,0],[1,0.25,0],[1,0.5,0],[1,0.75,0],[1,1,0],[0.75,1,0],[0.5,1,0],[0.25,1,0],[0,1,0],[0,0.75,0],[0,0.5,0],[0,0.25,0]];rounded=1;absoluteArcSize=1;arcSize=2;html=1;strokeColor=none;gradientColor=none;shadow=0;dashed=0;fontSize=12;fontColor=#666666;align=center;verticalAlign=top;spacing=10;spacingTop=-6;fillColor=#e4f1f1;" vertex="1" parent="WIyWlLk6GJQsqaUBKTNV-1">
          <mxGeometry x="286" y="835" width="53" height="30" as="geometry" />
        </mxCell>
        <mxCell id="CGNY96M8Sa9pFSSGAjqj-201" value="制品" style="sketch=0;points=[[0,0,0],[0.25,0,0],[0.5,0,0],[0.75,0,0],[1,0,0],[1,0.25,0],[1,0.5,0],[1,0.75,0],[1,1,0],[0.75,1,0],[0.5,1,0],[0.25,1,0],[0,1,0],[0,0.75,0],[0,0.5,0],[0,0.25,0]];rounded=1;absoluteArcSize=1;arcSize=2;html=1;strokeColor=none;gradientColor=none;shadow=0;dashed=0;fontSize=12;fontColor=#666666;align=left;verticalAlign=top;spacing=10;spacingTop=-4;fillColor=#FFF2CC;fontStyle=1" vertex="1" parent="WIyWlLk6GJQsqaUBKTNV-1">
          <mxGeometry x="950" y="524" width="60" height="386" as="geometry" />
        </mxCell>
        <mxCell id="CGNY96M8Sa9pFSSGAjqj-207" value="&lt;br&gt;文件" style="rounded=0;whiteSpace=wrap;html=1;fontSize=12;fontColor=#4D4D4D;fillColor=#fae7ce;strokeColor=none;align=center;spacingLeft=3;spacingRight=3;" vertex="1" parent="WIyWlLk6GJQsqaUBKTNV-1">
          <mxGeometry x="960.5" y="564" width="39" height="140" as="geometry" />
        </mxCell>
        <mxCell id="CGNY96M8Sa9pFSSGAjqj-208" value="地图&lt;br&gt;服务" style="rounded=0;whiteSpace=wrap;html=1;fontSize=12;fontColor=#4D4D4D;fillColor=#fae7ce;strokeColor=none;spacingLeft=3;spacingRight=3;" vertex="1" parent="WIyWlLk6GJQsqaUBKTNV-1">
          <mxGeometry x="960.5" y="739" width="39" height="140" as="geometry" />
        </mxCell>
        <mxCell id="CGNY96M8Sa9pFSSGAjqj-209" value="样式配置中心" style="sketch=0;points=[[0,0,0],[0.25,0,0],[0.5,0,0],[0.75,0,0],[1,0,0],[1,0.25,0],[1,0.5,0],[1,0.75,0],[1,1,0],[0.75,1,0],[0.5,1,0],[0.25,1,0],[0,1,0],[0,0.75,0],[0,0.5,0],[0,0.25,0]];rounded=1;absoluteArcSize=1;arcSize=2;html=1;strokeColor=#D5E8D4;gradientColor=none;shadow=0;dashed=0;fontSize=14;fontColor=#4D4D4D;align=left;verticalAlign=top;spacing=10;spacingTop=-4;fillColor=#F2F7EA;fontStyle=1;strokeWidth=1;" vertex="1" parent="WIyWlLk6GJQsqaUBKTNV-1">
          <mxGeometry x="250" y="320" width="770" height="140" as="geometry" />
        </mxCell>
        <mxCell id="CGNY96M8Sa9pFSSGAjqj-211" value="样式配置中心" style="sketch=0;points=[[0,0,0],[0.25,0,0],[0.5,0,0],[0.75,0,0],[1,0,0],[1,0.25,0],[1,0.5,0],[1,0.75,0],[1,1,0],[0.75,1,0],[0.5,1,0],[0.25,1,0],[0,1,0],[0,0.75,0],[0,0.5,0],[0,0.25,0]];rounded=1;absoluteArcSize=1;arcSize=2;html=1;strokeColor=#5c8bf7;gradientColor=none;shadow=0;dashed=0;fontSize=14;fontColor=#4D4D4D;align=left;verticalAlign=top;spacing=10;spacingTop=-4;fillColor=#FFFFFF;fontStyle=1;strokeWidth=1;" vertex="1" parent="WIyWlLk6GJQsqaUBKTNV-1">
          <mxGeometry x="1030" y="300" width="120" height="1090" as="geometry" />
        </mxCell>
        <mxCell id="CGNY96M8Sa9pFSSGAjqj-212" value="事实标签自动获取" style="sketch=0;points=[[0,0,0],[0.25,0,0],[0.5,0,0],[0.75,0,0],[1,0,0],[1,0.25,0],[1,0.5,0],[1,0.75,0],[1,1,0],[0.75,1,0],[0.5,1,0],[0.25,1,0],[0,1,0],[0,0.75,0],[0,0.5,0],[0,0.25,0]];rounded=1;absoluteArcSize=1;arcSize=2;html=1;strokeColor=none;gradientColor=none;shadow=0;dashed=0;fontSize=12;fontColor=#666666;align=center;verticalAlign=top;spacing=10;spacingTop=-6;fillColor=#D4E1F5;" vertex="1" parent="WIyWlLk6GJQsqaUBKTNV-1">
          <mxGeometry x="617.5" y="561" width="110" height="30" as="geometry" />
        </mxCell>
        <mxCell id="CGNY96M8Sa9pFSSGAjqj-213" value="是否入库？" style="sketch=0;points=[[0,0,0],[0.25,0,0],[0.5,0,0],[0.75,0,0],[1,0,0],[1,0.25,0],[1,0.5,0],[1,0.75,0],[1,1,0],[0.75,1,0],[0.5,1,0],[0.25,1,0],[0,1,0],[0,0.75,0],[0,0.5,0],[0,0.25,0]];rounded=1;absoluteArcSize=1;arcSize=2;html=1;strokeColor=none;gradientColor=none;shadow=0;dashed=0;fontSize=12;fontColor=#666666;align=center;verticalAlign=top;spacing=10;spacingTop=-6;fillColor=#D4E1F5;" vertex="1" parent="WIyWlLk6GJQsqaUBKTNV-1">
          <mxGeometry x="747.5" y="561" width="110" height="30" as="geometry" />
        </mxCell>
        <mxCell id="CGNY96M8Sa9pFSSGAjqj-214" value="规则标签配置" style="sketch=0;points=[[0,0,0],[0.25,0,0],[0.5,0,0],[0.75,0,0],[1,0,0],[1,0.25,0],[1,0.5,0],[1,0.75,0],[1,1,0],[0.75,1,0],[0.5,1,0],[0.25,1,0],[0,1,0],[0,0.75,0],[0,0.5,0],[0,0.25,0]];rounded=1;absoluteArcSize=1;arcSize=2;html=1;strokeColor=none;gradientColor=none;shadow=0;dashed=0;fontSize=12;fontColor=#666666;align=center;verticalAlign=top;spacing=10;spacingTop=-6;fillColor=#D4E1F5;" vertex="1" parent="WIyWlLk6GJQsqaUBKTNV-1">
          <mxGeometry x="301" y="751.5" width="84" height="30" as="geometry" />
        </mxCell>
        <mxCell id="CGNY96M8Sa9pFSSGAjqj-215" value="上传" style="sketch=0;points=[[0,0,0],[0.25,0,0],[0.5,0,0],[0.75,0,0],[1,0,0],[1,0.25,0],[1,0.5,0],[1,0.75,0],[1,1,0],[0.75,1,0],[0.5,1,0],[0.25,1,0],[0,1,0],[0,0.75,0],[0,0.5,0],[0,0.25,0]];rounded=1;absoluteArcSize=1;arcSize=2;html=1;strokeColor=none;gradientColor=none;shadow=0;dashed=0;fontSize=12;fontColor=#666666;align=center;verticalAlign=top;spacing=10;spacingTop=-6;fillColor=#D4E1F5;" vertex="1" parent="WIyWlLk6GJQsqaUBKTNV-1">
          <mxGeometry x="412.5" y="751.5" width="80" height="30" as="geometry" />
        </mxCell>
        <mxCell id="CGNY96M8Sa9pFSSGAjqj-216" value="有效性校验" style="sketch=0;points=[[0,0,0],[0.25,0,0],[0.5,0,0],[0.75,0,0],[1,0,0],[1,0.25,0],[1,0.5,0],[1,0.75,0],[1,1,0],[0.75,1,0],[0.5,1,0],[0.25,1,0],[0,1,0],[0,0.75,0],[0,0.5,0],[0,0.25,0]];rounded=1;absoluteArcSize=1;arcSize=2;html=1;strokeColor=none;gradientColor=none;shadow=0;dashed=0;fontSize=12;fontColor=#666666;align=center;verticalAlign=top;spacing=10;spacingTop=-6;fillColor=#D4E1F5;" vertex="1" parent="WIyWlLk6GJQsqaUBKTNV-1">
          <mxGeometry x="516" y="751.5" width="80" height="30" as="geometry" />
        </mxCell>
        <mxCell id="CGNY96M8Sa9pFSSGAjqj-217" value="事实标签自动获取" style="sketch=0;points=[[0,0,0],[0.25,0,0],[0.5,0,0],[0.75,0,0],[1,0,0],[1,0.25,0],[1,0.5,0],[1,0.75,0],[1,1,0],[0.75,1,0],[0.5,1,0],[0.25,1,0],[0,1,0],[0,0.75,0],[0,0.5,0],[0,0.25,0]];rounded=1;absoluteArcSize=1;arcSize=2;html=1;strokeColor=none;gradientColor=none;shadow=0;dashed=0;fontSize=12;fontColor=#666666;align=center;verticalAlign=top;spacing=10;spacingTop=-6;fillColor=#D4E1F5;" vertex="1" parent="WIyWlLk6GJQsqaUBKTNV-1">
          <mxGeometry x="626" y="751.5" width="110" height="30" as="geometry" />
        </mxCell>
        <mxCell id="CGNY96M8Sa9pFSSGAjqj-218" value="需要预处理操作" style="sketch=0;points=[[0,0,0],[0.25,0,0],[0.5,0,0],[0.75,0,0],[1,0,0],[1,0.25,0],[1,0.5,0],[1,0.75,0],[1,1,0],[0.75,1,0],[0.5,1,0],[0.25,1,0],[0,1,0],[0,0.75,0],[0,0.5,0],[0,0.25,0]];rounded=1;absoluteArcSize=1;arcSize=2;html=1;strokeColor=none;gradientColor=none;shadow=0;dashed=0;fontSize=12;fontColor=#666666;align=center;verticalAlign=top;spacing=10;spacingTop=-6;fillColor=#E4F1F1;" vertex="1" parent="WIyWlLk6GJQsqaUBKTNV-1">
          <mxGeometry x="756.5" y="751.5" width="110" height="30" as="geometry" />
        </mxCell>
        <mxCell id="CGNY96M8Sa9pFSSGAjqj-219" value="需要" style="sketch=0;points=[[0,0,0],[0.25,0,0],[0.5,0,0],[0.75,0,0],[1,0,0],[1,0.25,0],[1,0.5,0],[1,0.75,0],[1,1,0],[0.75,1,0],[0.5,1,0],[0.25,1,0],[0,1,0],[0,0.75,0],[0,0.5,0],[0,0.25,0]];rounded=1;absoluteArcSize=1;arcSize=2;html=1;strokeColor=none;gradientColor=none;shadow=0;dashed=0;fontSize=12;fontColor=#666666;align=center;verticalAlign=top;spacing=10;spacingTop=-6;fillColor=#D4E1F5;" vertex="1" parent="WIyWlLk6GJQsqaUBKTNV-1">
          <mxGeometry x="825" y="809" width="80" height="30" as="geometry" />
        </mxCell>
        <mxCell id="CGNY96M8Sa9pFSSGAjqj-220" value="调用 AgriEdge 相关服务" style="sketch=0;points=[[0,0,0],[0.25,0,0],[0.5,0,0],[0.75,0,0],[1,0,0],[1,0.25,0],[1,0.5,0],[1,0.75,0],[1,1,0],[0.75,1,0],[0.5,1,0],[0.25,1,0],[0,1,0],[0,0.75,0],[0,0.5,0],[0,0.25,0]];rounded=1;absoluteArcSize=1;arcSize=2;html=1;strokeColor=none;gradientColor=none;shadow=0;dashed=0;fontSize=12;fontColor=#666666;align=center;verticalAlign=top;spacing=10;spacingTop=-6;fillColor=#e4f1f1;" vertex="1" parent="WIyWlLk6GJQsqaUBKTNV-1">
          <mxGeometry x="661" y="809" width="136" height="30" as="geometry" />
        </mxCell>
        <mxCell id="CGNY96M8Sa9pFSSGAjqj-221" value="不需要" style="sketch=0;points=[[0,0,0],[0.25,0,0],[0.5,0,0],[0.75,0,0],[1,0,0],[1,0.25,0],[1,0.5,0],[1,0.75,0],[1,1,0],[0.75,1,0],[0.5,1,0],[0.25,1,0],[0,1,0],[0,0.75,0],[0,0.5,0],[0,0.25,0]];rounded=1;absoluteArcSize=1;arcSize=2;html=1;strokeColor=none;gradientColor=none;shadow=0;dashed=0;fontSize=12;fontColor=#666666;align=center;verticalAlign=top;spacing=10;spacingTop=-6;fillColor=#e4f1f1;" vertex="1" parent="WIyWlLk6GJQsqaUBKTNV-1">
          <mxGeometry x="661" y="859" width="80" height="30" as="geometry" />
        </mxCell>
        <mxCell id="CGNY96M8Sa9pFSSGAjqj-222" value="落入磁盘(NAS)" style="sketch=0;points=[[0,0,0],[0.25,0,0],[0.5,0,0],[0.75,0,0],[1,0,0],[1,0.25,0],[1,0.5,0],[1,0.75,0],[1,1,0],[0.75,1,0],[0.5,1,0],[0.25,1,0],[0,1,0],[0,0.75,0],[0,0.5,0],[0,0.25,0]];rounded=1;absoluteArcSize=1;arcSize=2;html=1;strokeColor=none;gradientColor=none;shadow=0;dashed=0;fontSize=12;fontColor=#666666;align=center;verticalAlign=top;spacing=10;spacingTop=-6;fillColor=#e4f1f1;" vertex="1" parent="WIyWlLk6GJQsqaUBKTNV-1">
          <mxGeometry x="522" y="835" width="95" height="30" as="geometry" />
        </mxCell>
        <mxCell id="CGNY96M8Sa9pFSSGAjqj-252" style="edgeStyle=orthogonalEdgeStyle;rounded=0;orthogonalLoop=1;jettySize=auto;html=1;exitX=1;exitY=0.5;exitDx=0;exitDy=0;entryX=0;entryY=0.5;entryDx=0;entryDy=0;fontSize=12;fontColor=#E6E6E6;endArrow=classic;endFill=1;strokeColor=#666666;" edge="1" parent="WIyWlLk6GJQsqaUBKTNV-1" source="CGNY96M8Sa9pFSSGAjqj-223" target="CGNY96M8Sa9pFSSGAjqj-224">
          <mxGeometry relative="1" as="geometry" />
        </mxCell>
        <mxCell id="CGNY96M8Sa9pFSSGAjqj-223" value="选择字段" style="rounded=0;whiteSpace=wrap;html=1;fontSize=12;fontColor=#666666;strokeColor=none;strokeWidth=1;fillColor=#E4F1F1;" vertex="1" parent="WIyWlLk6GJQsqaUBKTNV-1">
          <mxGeometry x="281.5" y="380" width="81" height="30" as="geometry" />
        </mxCell>
        <mxCell id="CGNY96M8Sa9pFSSGAjqj-253" style="edgeStyle=orthogonalEdgeStyle;rounded=0;orthogonalLoop=1;jettySize=auto;html=1;exitX=1;exitY=0.5;exitDx=0;exitDy=0;entryX=0;entryY=0.5;entryDx=0;entryDy=0;fontSize=12;fontColor=#E6E6E6;endArrow=classic;endFill=1;strokeColor=#666666;" edge="1" parent="WIyWlLk6GJQsqaUBKTNV-1" source="CGNY96M8Sa9pFSSGAjqj-224" target="CGNY96M8Sa9pFSSGAjqj-245">
          <mxGeometry relative="1" as="geometry" />
        </mxCell>
        <mxCell id="CGNY96M8Sa9pFSSGAjqj-256" style="edgeStyle=orthogonalEdgeStyle;rounded=0;orthogonalLoop=1;jettySize=auto;html=1;exitX=1;exitY=0.5;exitDx=0;exitDy=0;entryX=0;entryY=0.5;entryDx=0;entryDy=0;fontSize=12;fontColor=#E6E6E6;endArrow=classic;endFill=1;strokeColor=#666666;" edge="1" parent="WIyWlLk6GJQsqaUBKTNV-1" source="CGNY96M8Sa9pFSSGAjqj-224" target="CGNY96M8Sa9pFSSGAjqj-246">
          <mxGeometry relative="1" as="geometry">
            <Array as="points">
              <mxPoint x="480" y="395" />
              <mxPoint x="480" y="435" />
            </Array>
          </mxGeometry>
        </mxCell>
        <mxCell id="CGNY96M8Sa9pFSSGAjqj-257" style="edgeStyle=orthogonalEdgeStyle;rounded=0;orthogonalLoop=1;jettySize=auto;html=1;exitX=1;exitY=0.5;exitDx=0;exitDy=0;entryX=0;entryY=0.5;entryDx=0;entryDy=0;fontSize=12;fontColor=#E6E6E6;endArrow=classic;endFill=1;strokeColor=#666666;" edge="1" parent="WIyWlLk6GJQsqaUBKTNV-1" source="CGNY96M8Sa9pFSSGAjqj-224" target="CGNY96M8Sa9pFSSGAjqj-244">
          <mxGeometry relative="1" as="geometry">
            <Array as="points">
              <mxPoint x="480" y="395" />
              <mxPoint x="480" y="355" />
            </Array>
          </mxGeometry>
        </mxCell>
        <mxCell id="CGNY96M8Sa9pFSSGAjqj-224" value="获取有效值" style="rounded=0;whiteSpace=wrap;html=1;fontSize=12;fontColor=#666666;strokeColor=none;strokeWidth=1;fillColor=#E4F1F1;" vertex="1" parent="WIyWlLk6GJQsqaUBKTNV-1">
          <mxGeometry x="380" y="380" width="90" height="30" as="geometry" />
        </mxCell>
        <mxCell id="CGNY96M8Sa9pFSSGAjqj-225" value="规则标签配置" style="sketch=0;points=[[0,0,0],[0.25,0,0],[0.5,0,0],[0.75,0,0],[1,0,0],[1,0.25,0],[1,0.5,0],[1,0.75,0],[1,1,0],[0.75,1,0],[0.5,1,0],[0.25,1,0],[0,1,0],[0,0.75,0],[0,0.5,0],[0,0.25,0]];rounded=1;absoluteArcSize=1;arcSize=2;html=1;strokeColor=none;gradientColor=none;shadow=0;dashed=0;fontSize=12;fontColor=#666666;align=center;verticalAlign=top;spacing=10;spacingTop=-6;fillColor=#e4f1f1;" vertex="1" parent="WIyWlLk6GJQsqaUBKTNV-1">
          <mxGeometry x="314" y="561" width="91" height="30" as="geometry" />
        </mxCell>
        <mxCell id="CGNY96M8Sa9pFSSGAjqj-226" value="上传" style="sketch=0;points=[[0,0,0],[0.25,0,0],[0.5,0,0],[0.75,0,0],[1,0,0],[1,0.25,0],[1,0.5,0],[1,0.75,0],[1,1,0],[0.75,1,0],[0.5,1,0],[0.25,1,0],[0,1,0],[0,0.75,0],[0,0.5,0],[0,0.25,0]];rounded=1;absoluteArcSize=1;arcSize=2;html=1;strokeColor=none;gradientColor=none;shadow=0;dashed=0;fontSize=12;fontColor=#666666;align=center;verticalAlign=top;spacing=10;spacingTop=-4;fillColor=#e4f1f1;" vertex="1" parent="WIyWlLk6GJQsqaUBKTNV-1">
          <mxGeometry x="422.5" y="561" width="80" height="30" as="geometry" />
        </mxCell>
        <mxCell id="CGNY96M8Sa9pFSSGAjqj-227" value="有效性校验" style="sketch=0;points=[[0,0,0],[0.25,0,0],[0.5,0,0],[0.75,0,0],[1,0,0],[1,0.25,0],[1,0.5,0],[1,0.75,0],[1,1,0],[0.75,1,0],[0.5,1,0],[0.25,1,0],[0,1,0],[0,0.75,0],[0,0.5,0],[0,0.25,0]];rounded=1;absoluteArcSize=1;arcSize=2;html=1;strokeColor=none;gradientColor=none;shadow=0;dashed=0;fontSize=12;fontColor=#666666;align=center;verticalAlign=top;spacing=10;spacingTop=-4;fillColor=#e4f1f1;" vertex="1" parent="WIyWlLk6GJQsqaUBKTNV-1">
          <mxGeometry x="517.5" y="561" width="80" height="30" as="geometry" />
        </mxCell>
        <mxCell id="CGNY96M8Sa9pFSSGAjqj-228" value="事实标签自动获取" style="sketch=0;points=[[0,0,0],[0.25,0,0],[0.5,0,0],[0.75,0,0],[1,0,0],[1,0.25,0],[1,0.5,0],[1,0.75,0],[1,1,0],[0.75,1,0],[0.5,1,0],[0.25,1,0],[0,1,0],[0,0.75,0],[0,0.5,0],[0,0.25,0]];rounded=1;absoluteArcSize=1;arcSize=2;html=1;strokeColor=none;gradientColor=none;shadow=0;dashed=0;fontSize=12;fontColor=#666666;align=center;verticalAlign=top;spacing=10;spacingTop=-6;fillColor=#e4f1f1;" vertex="1" parent="WIyWlLk6GJQsqaUBKTNV-1">
          <mxGeometry x="617.5" y="561" width="110" height="30" as="geometry" />
        </mxCell>
        <mxCell id="CGNY96M8Sa9pFSSGAjqj-229" value="是否入库？" style="sketch=0;points=[[0,0,0],[0.25,0,0],[0.5,0,0],[0.75,0,0],[1,0,0],[1,0.25,0],[1,0.5,0],[1,0.75,0],[1,1,0],[0.75,1,0],[0.5,1,0],[0.25,1,0],[0,1,0],[0,0.75,0],[0,0.5,0],[0,0.25,0]];rounded=1;absoluteArcSize=1;arcSize=2;html=1;strokeColor=none;gradientColor=none;shadow=0;dashed=0;fontSize=12;fontColor=#666666;align=center;verticalAlign=top;spacing=10;spacingTop=-6;fillColor=#e4f1f1;" vertex="1" parent="WIyWlLk6GJQsqaUBKTNV-1">
          <mxGeometry x="747.5" y="561" width="110" height="30" as="geometry" />
        </mxCell>
        <mxCell id="CGNY96M8Sa9pFSSGAjqj-230" value="入库" style="sketch=0;points=[[0,0,0],[0.25,0,0],[0.5,0,0],[0.75,0,0],[1,0,0],[1,0.25,0],[1,0.5,0],[1,0.75,0],[1,1,0],[0.75,1,0],[0.5,1,0],[0.25,1,0],[0,1,0],[0,0.75,0],[0,0.5,0],[0,0.25,0]];rounded=1;absoluteArcSize=1;arcSize=2;html=1;strokeColor=none;gradientColor=none;shadow=0;dashed=0;fontSize=12;fontColor=#666666;align=center;verticalAlign=top;spacing=10;spacingTop=-6;fillColor=#e4f1f1;" vertex="1" parent="WIyWlLk6GJQsqaUBKTNV-1">
          <mxGeometry x="808.5" y="611" width="80" height="30" as="geometry" />
        </mxCell>
        <mxCell id="CGNY96M8Sa9pFSSGAjqj-231" value="不入库" style="sketch=0;points=[[0,0,0],[0.25,0,0],[0.5,0,0],[0.75,0,0],[1,0,0],[1,0.25,0],[1,0.5,0],[1,0.75,0],[1,1,0],[0.75,1,0],[0.5,1,0],[0.25,1,0],[0,1,0],[0,0.75,0],[0,0.5,0],[0,0.25,0]];rounded=1;absoluteArcSize=1;arcSize=2;html=1;strokeColor=none;gradientColor=none;shadow=0;dashed=0;fontSize=12;fontColor=#666666;align=center;verticalAlign=top;spacing=10;spacingTop=-6;fillColor=#e4f1f1;" vertex="1" parent="WIyWlLk6GJQsqaUBKTNV-1">
          <mxGeometry x="808.5" y="661" width="80" height="30" as="geometry" />
        </mxCell>
        <mxCell id="CGNY96M8Sa9pFSSGAjqj-232" value="选择目标库表" style="sketch=0;points=[[0,0,0],[0.25,0,0],[0.5,0,0],[0.75,0,0],[1,0,0],[1,0.25,0],[1,0.5,0],[1,0.75,0],[1,1,0],[0.75,1,0],[0.5,1,0],[0.25,1,0],[0,1,0],[0,0.75,0],[0,0.5,0],[0,0.25,0]];rounded=1;absoluteArcSize=1;arcSize=2;html=1;strokeColor=none;gradientColor=none;shadow=0;dashed=0;fontSize=12;fontColor=#666666;align=center;verticalAlign=top;spacing=10;spacingTop=-6;fillColor=#e4f1f1;" vertex="1" parent="WIyWlLk6GJQsqaUBKTNV-1">
          <mxGeometry x="688.5" y="611" width="87" height="30" as="geometry" />
        </mxCell>
        <mxCell id="CGNY96M8Sa9pFSSGAjqj-233" value="字段映射配置" style="sketch=0;points=[[0,0,0],[0.25,0,0],[0.5,0,0],[0.75,0,0],[1,0,0],[1,0.25,0],[1,0.5,0],[1,0.75,0],[1,1,0],[0.75,1,0],[0.5,1,0],[0.25,1,0],[0,1,0],[0,0.75,0],[0,0.5,0],[0,0.25,0]];rounded=1;absoluteArcSize=1;arcSize=2;html=1;strokeColor=none;gradientColor=none;shadow=0;dashed=0;fontSize=12;fontColor=#666666;align=center;verticalAlign=top;spacing=10;spacingTop=-6;fillColor=#e4f1f1;" vertex="1" parent="WIyWlLk6GJQsqaUBKTNV-1">
          <mxGeometry x="579.5" y="611" width="87" height="30" as="geometry" />
        </mxCell>
        <mxCell id="CGNY96M8Sa9pFSSGAjqj-234" value="落入磁盘(NAS)" style="sketch=0;points=[[0,0,0],[0.25,0,0],[0.5,0,0],[0.75,0,0],[1,0,0],[1,0.25,0],[1,0.5,0],[1,0.75,0],[1,1,0],[0.75,1,0],[0.5,1,0],[0.25,1,0],[0,1,0],[0,0.75,0],[0,0.5,0],[0,0.25,0]];rounded=1;absoluteArcSize=1;arcSize=2;html=1;strokeColor=none;gradientColor=none;shadow=0;dashed=0;fontSize=12;fontColor=#666666;align=center;verticalAlign=top;spacing=10;spacingTop=-6;fillColor=#e4f1f1;" vertex="1" parent="WIyWlLk6GJQsqaUBKTNV-1">
          <mxGeometry x="579.5" y="661" width="95" height="30" as="geometry" />
        </mxCell>
        <mxCell id="CGNY96M8Sa9pFSSGAjqj-235" value="规则标签配置" style="sketch=0;points=[[0,0,0],[0.25,0,0],[0.5,0,0],[0.75,0,0],[1,0,0],[1,0.25,0],[1,0.5,0],[1,0.75,0],[1,1,0],[0.75,1,0],[0.5,1,0],[0.25,1,0],[0,1,0],[0,0.75,0],[0,0.5,0],[0,0.25,0]];rounded=1;absoluteArcSize=1;arcSize=2;html=1;strokeColor=none;gradientColor=none;shadow=0;dashed=0;fontSize=12;fontColor=#666666;align=center;verticalAlign=top;spacing=10;spacingTop=-6;fillColor=#D4E1F5;" vertex="1" parent="WIyWlLk6GJQsqaUBKTNV-1">
          <mxGeometry x="301" y="751.5" width="84" height="30" as="geometry" />
        </mxCell>
        <mxCell id="CGNY96M8Sa9pFSSGAjqj-236" value="上传" style="sketch=0;points=[[0,0,0],[0.25,0,0],[0.5,0,0],[0.75,0,0],[1,0,0],[1,0.25,0],[1,0.5,0],[1,0.75,0],[1,1,0],[0.75,1,0],[0.5,1,0],[0.25,1,0],[0,1,0],[0,0.75,0],[0,0.5,0],[0,0.25,0]];rounded=1;absoluteArcSize=1;arcSize=2;html=1;strokeColor=none;gradientColor=none;shadow=0;dashed=0;fontSize=12;fontColor=#666666;align=center;verticalAlign=top;spacing=10;spacingTop=-6;fillColor=#D4E1F5;" vertex="1" parent="WIyWlLk6GJQsqaUBKTNV-1">
          <mxGeometry x="412.5" y="751.5" width="80" height="30" as="geometry" />
        </mxCell>
        <mxCell id="CGNY96M8Sa9pFSSGAjqj-237" value="有效性校验" style="sketch=0;points=[[0,0,0],[0.25,0,0],[0.5,0,0],[0.75,0,0],[1,0,0],[1,0.25,0],[1,0.5,0],[1,0.75,0],[1,1,0],[0.75,1,0],[0.5,1,0],[0.25,1,0],[0,1,0],[0,0.75,0],[0,0.5,0],[0,0.25,0]];rounded=1;absoluteArcSize=1;arcSize=2;html=1;strokeColor=none;gradientColor=none;shadow=0;dashed=0;fontSize=12;fontColor=#666666;align=center;verticalAlign=top;spacing=10;spacingTop=-6;fillColor=#D4E1F5;" vertex="1" parent="WIyWlLk6GJQsqaUBKTNV-1">
          <mxGeometry x="516" y="751.5" width="80" height="30" as="geometry" />
        </mxCell>
        <mxCell id="CGNY96M8Sa9pFSSGAjqj-238" value="事实标签自动获取" style="sketch=0;points=[[0,0,0],[0.25,0,0],[0.5,0,0],[0.75,0,0],[1,0,0],[1,0.25,0],[1,0.5,0],[1,0.75,0],[1,1,0],[0.75,1,0],[0.5,1,0],[0.25,1,0],[0,1,0],[0,0.75,0],[0,0.5,0],[0,0.25,0]];rounded=1;absoluteArcSize=1;arcSize=2;html=1;strokeColor=none;gradientColor=none;shadow=0;dashed=0;fontSize=12;fontColor=#666666;align=center;verticalAlign=top;spacing=10;spacingTop=-6;fillColor=#D4E1F5;" vertex="1" parent="WIyWlLk6GJQsqaUBKTNV-1">
          <mxGeometry x="626" y="751.5" width="110" height="30" as="geometry" />
        </mxCell>
        <mxCell id="CGNY96M8Sa9pFSSGAjqj-239" value="规则标签配置" style="sketch=0;points=[[0,0,0],[0.25,0,0],[0.5,0,0],[0.75,0,0],[1,0,0],[1,0.25,0],[1,0.5,0],[1,0.75,0],[1,1,0],[0.75,1,0],[0.5,1,0],[0.25,1,0],[0,1,0],[0,0.75,0],[0,0.5,0],[0,0.25,0]];rounded=1;absoluteArcSize=1;arcSize=2;html=1;strokeColor=none;gradientColor=none;shadow=0;dashed=0;fontSize=12;fontColor=#666666;align=center;verticalAlign=top;spacing=10;spacingTop=-6;fillColor=#e4f1f1;" vertex="1" parent="WIyWlLk6GJQsqaUBKTNV-1">
          <mxGeometry x="300.5" y="751.5" width="84" height="30" as="geometry" />
        </mxCell>
        <mxCell id="CGNY96M8Sa9pFSSGAjqj-240" value="上传" style="sketch=0;points=[[0,0,0],[0.25,0,0],[0.5,0,0],[0.75,0,0],[1,0,0],[1,0.25,0],[1,0.5,0],[1,0.75,0],[1,1,0],[0.75,1,0],[0.5,1,0],[0.25,1,0],[0,1,0],[0,0.75,0],[0,0.5,0],[0,0.25,0]];rounded=1;absoluteArcSize=1;arcSize=2;html=1;strokeColor=none;gradientColor=none;shadow=0;dashed=0;fontSize=12;fontColor=#666666;align=center;verticalAlign=top;spacing=10;spacingTop=-6;fillColor=#e4f1f1;" vertex="1" parent="WIyWlLk6GJQsqaUBKTNV-1">
          <mxGeometry x="412" y="751.5" width="80" height="30" as="geometry" />
        </mxCell>
        <mxCell id="CGNY96M8Sa9pFSSGAjqj-241" value="有效性校验" style="sketch=0;points=[[0,0,0],[0.25,0,0],[0.5,0,0],[0.75,0,0],[1,0,0],[1,0.25,0],[1,0.5,0],[1,0.75,0],[1,1,0],[0.75,1,0],[0.5,1,0],[0.25,1,0],[0,1,0],[0,0.75,0],[0,0.5,0],[0,0.25,0]];rounded=1;absoluteArcSize=1;arcSize=2;html=1;strokeColor=none;gradientColor=none;shadow=0;dashed=0;fontSize=12;fontColor=#666666;align=center;verticalAlign=top;spacing=10;spacingTop=-6;fillColor=#e4f1f1;" vertex="1" parent="WIyWlLk6GJQsqaUBKTNV-1">
          <mxGeometry x="515.5" y="751.5" width="80" height="30" as="geometry" />
        </mxCell>
        <mxCell id="CGNY96M8Sa9pFSSGAjqj-242" value="事实标签自动获取" style="sketch=0;points=[[0,0,0],[0.25,0,0],[0.5,0,0],[0.75,0,0],[1,0,0],[1,0.25,0],[1,0.5,0],[1,0.75,0],[1,1,0],[0.75,1,0],[0.5,1,0],[0.25,1,0],[0,1,0],[0,0.75,0],[0,0.5,0],[0,0.25,0]];rounded=1;absoluteArcSize=1;arcSize=2;html=1;strokeColor=none;gradientColor=none;shadow=0;dashed=0;fontSize=12;fontColor=#666666;align=center;verticalAlign=top;spacing=10;spacingTop=-6;fillColor=#e4f1f1;" vertex="1" parent="WIyWlLk6GJQsqaUBKTNV-1">
          <mxGeometry x="625.5" y="751.5" width="110" height="30" as="geometry" />
        </mxCell>
        <mxCell id="CGNY96M8Sa9pFSSGAjqj-243" value="需要" style="sketch=0;points=[[0,0,0],[0.25,0,0],[0.5,0,0],[0.75,0,0],[1,0,0],[1,0.25,0],[1,0.5,0],[1,0.75,0],[1,1,0],[0.75,1,0],[0.5,1,0],[0.25,1,0],[0,1,0],[0,0.75,0],[0,0.5,0],[0,0.25,0]];rounded=1;absoluteArcSize=1;arcSize=2;html=1;strokeColor=none;gradientColor=none;shadow=0;dashed=0;fontSize=12;fontColor=#666666;align=center;verticalAlign=top;spacing=10;spacingTop=-6;fillColor=#e4f1f1;" vertex="1" parent="WIyWlLk6GJQsqaUBKTNV-1">
          <mxGeometry x="824.5" y="809" width="80" height="30" as="geometry" />
        </mxCell>
        <mxCell id="CGNY96M8Sa9pFSSGAjqj-258" style="edgeStyle=orthogonalEdgeStyle;rounded=0;orthogonalLoop=1;jettySize=auto;html=1;exitX=1;exitY=0.5;exitDx=0;exitDy=0;entryX=0;entryY=0.5;entryDx=0;entryDy=0;fontSize=12;fontColor=#E6E6E6;endArrow=classic;endFill=1;strokeColor=#666666;" edge="1" parent="WIyWlLk6GJQsqaUBKTNV-1" source="CGNY96M8Sa9pFSSGAjqj-244" target="CGNY96M8Sa9pFSSGAjqj-247">
          <mxGeometry relative="1" as="geometry">
            <Array as="points">
              <mxPoint x="580" y="355" />
              <mxPoint x="580" y="395" />
            </Array>
          </mxGeometry>
        </mxCell>
        <mxCell id="CGNY96M8Sa9pFSSGAjqj-244" value="分级渲染" style="rounded=0;whiteSpace=wrap;html=1;fontSize=12;fontColor=#666666;strokeColor=none;strokeWidth=1;fillColor=#E4F1F1;" vertex="1" parent="WIyWlLk6GJQsqaUBKTNV-1">
          <mxGeometry x="493.5" y="340" width="75" height="30" as="geometry" />
        </mxCell>
        <mxCell id="CGNY96M8Sa9pFSSGAjqj-259" style="edgeStyle=orthogonalEdgeStyle;rounded=0;orthogonalLoop=1;jettySize=auto;html=1;exitX=1;exitY=0.5;exitDx=0;exitDy=0;fontSize=12;fontColor=#E6E6E6;endArrow=classic;endFill=1;strokeColor=#666666;entryX=0;entryY=0.5;entryDx=0;entryDy=0;" edge="1" parent="WIyWlLk6GJQsqaUBKTNV-1" source="CGNY96M8Sa9pFSSGAjqj-245" target="CGNY96M8Sa9pFSSGAjqj-247">
          <mxGeometry relative="1" as="geometry">
            <mxPoint x="600" y="395" as="targetPoint" />
          </mxGeometry>
        </mxCell>
        <mxCell id="CGNY96M8Sa9pFSSGAjqj-245" value="分类渲染" style="rounded=0;whiteSpace=wrap;html=1;fontSize=12;fontColor=#666666;strokeColor=none;strokeWidth=1;fillColor=#E4F1F1;" vertex="1" parent="WIyWlLk6GJQsqaUBKTNV-1">
          <mxGeometry x="494.5" y="380" width="75" height="30" as="geometry" />
        </mxCell>
        <mxCell id="CGNY96M8Sa9pFSSGAjqj-260" style="edgeStyle=orthogonalEdgeStyle;rounded=0;orthogonalLoop=1;jettySize=auto;html=1;exitX=1;exitY=0.5;exitDx=0;exitDy=0;entryX=0;entryY=0.5;entryDx=0;entryDy=0;fontSize=12;fontColor=#E6E6E6;endArrow=classic;endFill=1;strokeColor=#666666;" edge="1" parent="WIyWlLk6GJQsqaUBKTNV-1" source="CGNY96M8Sa9pFSSGAjqj-246" target="CGNY96M8Sa9pFSSGAjqj-247">
          <mxGeometry relative="1" as="geometry">
            <Array as="points">
              <mxPoint x="580" y="435" />
              <mxPoint x="580" y="395" />
            </Array>
          </mxGeometry>
        </mxCell>
        <mxCell id="CGNY96M8Sa9pFSSGAjqj-246" value="文字符号化" style="rounded=0;whiteSpace=wrap;html=1;fontSize=12;fontColor=#666666;strokeColor=none;strokeWidth=1;fillColor=#E4F1F1;" vertex="1" parent="WIyWlLk6GJQsqaUBKTNV-1">
          <mxGeometry x="494.5" y="420" width="75" height="30" as="geometry" />
        </mxCell>
        <mxCell id="CGNY96M8Sa9pFSSGAjqj-261" style="edgeStyle=orthogonalEdgeStyle;rounded=0;orthogonalLoop=1;jettySize=auto;html=1;exitX=1;exitY=0.5;exitDx=0;exitDy=0;entryX=0;entryY=0.5;entryDx=0;entryDy=0;fontSize=12;fontColor=#E6E6E6;endArrow=classic;endFill=1;strokeColor=#666666;" edge="1" parent="WIyWlLk6GJQsqaUBKTNV-1" source="CGNY96M8Sa9pFSSGAjqj-247" target="CGNY96M8Sa9pFSSGAjqj-248">
          <mxGeometry relative="1" as="geometry" />
        </mxCell>
        <mxCell id="CGNY96M8Sa9pFSSGAjqj-247" value="预览" style="rounded=0;whiteSpace=wrap;html=1;fontSize=12;fontColor=#666666;strokeColor=none;strokeWidth=1;fillColor=#E4F1F1;" vertex="1" parent="WIyWlLk6GJQsqaUBKTNV-1">
          <mxGeometry x="601.5" y="380" width="57" height="30" as="geometry" />
        </mxCell>
        <mxCell id="CGNY96M8Sa9pFSSGAjqj-262" style="edgeStyle=orthogonalEdgeStyle;rounded=0;orthogonalLoop=1;jettySize=auto;html=1;exitX=1;exitY=0.5;exitDx=0;exitDy=0;entryX=0;entryY=0.5;entryDx=0;entryDy=0;fontSize=12;fontColor=#E6E6E6;endArrow=classic;endFill=1;strokeColor=#666666;" edge="1" parent="WIyWlLk6GJQsqaUBKTNV-1" source="CGNY96M8Sa9pFSSGAjqj-248" target="CGNY96M8Sa9pFSSGAjqj-249">
          <mxGeometry relative="1" as="geometry" />
        </mxCell>
        <mxCell id="CGNY96M8Sa9pFSSGAjqj-248" value="保存" style="rounded=0;whiteSpace=wrap;html=1;fontSize=12;fontColor=#666666;strokeColor=none;strokeWidth=1;fillColor=#E4F1F1;" vertex="1" parent="WIyWlLk6GJQsqaUBKTNV-1">
          <mxGeometry x="683.5" y="380" width="54" height="30" as="geometry" />
        </mxCell>
        <mxCell id="CGNY96M8Sa9pFSSGAjqj-263" style="edgeStyle=orthogonalEdgeStyle;rounded=0;orthogonalLoop=1;jettySize=auto;html=1;exitX=1;exitY=0.5;exitDx=0;exitDy=0;entryX=0;entryY=0.5;entryDx=0;entryDy=0;fontSize=12;fontColor=#E6E6E6;endArrow=classic;endFill=1;strokeColor=#666666;" edge="1" parent="WIyWlLk6GJQsqaUBKTNV-1" source="CGNY96M8Sa9pFSSGAjqj-249" target="CGNY96M8Sa9pFSSGAjqj-250">
          <mxGeometry relative="1" as="geometry" />
        </mxCell>
        <mxCell id="CGNY96M8Sa9pFSSGAjqj-249" value="生成 SLD" style="rounded=0;whiteSpace=wrap;html=1;fontSize=12;fontColor=#666666;strokeColor=none;strokeWidth=1;fillColor=#E4F1F1;" vertex="1" parent="WIyWlLk6GJQsqaUBKTNV-1">
          <mxGeometry x="764" y="380" width="68.5" height="30" as="geometry" />
        </mxCell>
        <mxCell id="CGNY96M8Sa9pFSSGAjqj-264" style="edgeStyle=orthogonalEdgeStyle;rounded=0;orthogonalLoop=1;jettySize=auto;html=1;exitX=1;exitY=0.5;exitDx=0;exitDy=0;entryX=0.006;entryY=0.545;entryDx=0;entryDy=0;entryPerimeter=0;fontSize=12;fontColor=#E6E6E6;endArrow=classic;endFill=1;strokeColor=#666666;" edge="1" parent="WIyWlLk6GJQsqaUBKTNV-1" source="CGNY96M8Sa9pFSSGAjqj-250" target="CGNY96M8Sa9pFSSGAjqj-251">
          <mxGeometry relative="1" as="geometry" />
        </mxCell>
        <mxCell id="CGNY96M8Sa9pFSSGAjqj-250" value="应用于地图服务" style="rounded=0;whiteSpace=wrap;html=1;fontSize=12;fontColor=#666666;strokeColor=none;strokeWidth=1;fillColor=#E4F1F1;" vertex="1" parent="WIyWlLk6GJQsqaUBKTNV-1">
          <mxGeometry x="851" y="380" width="91.5" height="30" as="geometry" />
        </mxCell>
        <mxCell id="CGNY96M8Sa9pFSSGAjqj-251" value="地图&lt;br&gt;服务" style="rounded=0;whiteSpace=wrap;html=1;fontSize=12;fontColor=#4D4D4D;fillColor=#fae7ce;strokeColor=none;spacingLeft=3;spacingRight=3;" vertex="1" parent="WIyWlLk6GJQsqaUBKTNV-1">
          <mxGeometry x="961" y="327.5" width="39" height="125" as="geometry" />
        </mxCell>
        <mxCell id="CGNY96M8Sa9pFSSGAjqj-265" value="年" style="rounded=0;whiteSpace=wrap;html=1;fillColor=#ffe6cc;strokeColor=none;" vertex="1" parent="WIyWlLk6GJQsqaUBKTNV-1">
          <mxGeometry x="417.25" y="1295" width="100" height="25" as="geometry" />
        </mxCell>
        <mxCell id="CGNY96M8Sa9pFSSGAjqj-266" value="月" style="rounded=0;whiteSpace=wrap;html=1;fillColor=#ffe6cc;strokeColor=none;" vertex="1" parent="WIyWlLk6GJQsqaUBKTNV-1">
          <mxGeometry x="567.25" y="1295" width="100" height="25" as="geometry" />
        </mxCell>
        <mxCell id="CGNY96M8Sa9pFSSGAjqj-267" value="日" style="rounded=0;whiteSpace=wrap;html=1;fillColor=#ffe6cc;strokeColor=none;" vertex="1" parent="WIyWlLk6GJQsqaUBKTNV-1">
          <mxGeometry x="728.75" y="1295" width="100" height="25" as="geometry" />
        </mxCell>
        <mxCell id="CGNY96M8Sa9pFSSGAjqj-268" value="长势" style="sketch=0;points=[[0,0,0],[0.25,0,0],[0.5,0,0],[0.75,0,0],[1,0,0],[1,0.25,0],[1,0.5,0],[1,0.75,0],[1,1,0],[0.75,1,0],[0.5,1,0],[0.25,1,0],[0,1,0],[0,0.75,0],[0,0.5,0],[0,0.25,0]];rounded=1;absoluteArcSize=1;arcSize=2;html=1;strokeColor=none;gradientColor=none;shadow=0;dashed=0;fontSize=12;fontColor=#666666;align=center;verticalAlign=top;spacing=10;spacingTop=-7;fillColor=#FFF2CC;" vertex="1" parent="WIyWlLk6GJQsqaUBKTNV-1">
          <mxGeometry x="589.5" y="1196.5" width="80" height="30" as="geometry" />
        </mxCell>
        <mxCell id="CGNY96M8Sa9pFSSGAjqj-269" value="产量" style="sketch=0;points=[[0,0,0],[0.25,0,0],[0.5,0,0],[0.75,0,0],[1,0,0],[1,0.25,0],[1,0.5,0],[1,0.75,0],[1,1,0],[0.75,1,0],[0.5,1,0],[0.25,1,0],[0,1,0],[0,0.75,0],[0,0.5,0],[0,0.25,0]];rounded=1;absoluteArcSize=1;arcSize=2;html=1;strokeColor=none;gradientColor=none;shadow=0;dashed=0;fontSize=12;fontColor=#666666;align=center;verticalAlign=top;spacing=10;spacingTop=-7;fillColor=#FFF2CC;" vertex="1" parent="WIyWlLk6GJQsqaUBKTNV-1">
          <mxGeometry x="589.5" y="1232.5" width="80" height="30" as="geometry" />
        </mxCell>
        <mxCell id="CGNY96M8Sa9pFSSGAjqj-270" value="分辨率" style="sketch=0;points=[[0,0,0],[0.25,0,0],[0.5,0,0],[0.75,0,0],[1,0,0],[1,0.25,0],[1,0.5,0],[1,0.75,0],[1,1,0],[0.75,1,0],[0.5,1,0],[0.25,1,0],[0,1,0],[0,0.75,0],[0,0.5,0],[0,0.25,0]];rounded=1;absoluteArcSize=1;arcSize=2;html=1;strokeColor=none;gradientColor=none;shadow=0;dashed=0;fontSize=12;fontColor=#666666;align=left;verticalAlign=top;spacing=10;spacingTop=-4;fillColor=#E0F2F1;" vertex="1" parent="WIyWlLk6GJQsqaUBKTNV-1">
          <mxGeometry x="690" y="1020" width="62" height="250" as="geometry" />
        </mxCell>
        <mxCell id="CGNY96M8Sa9pFSSGAjqj-271" value="0.5m" style="sketch=0;points=[[0,0,0],[0.25,0,0],[0.5,0,0],[0.75,0,0],[1,0,0],[1,0.25,0],[1,0.5,0],[1,0.75,0],[1,1,0],[0.75,1,0],[0.5,1,0],[0.25,1,0],[0,1,0],[0,0.75,0],[0,0.5,0],[0,0.25,0]];rounded=1;absoluteArcSize=1;arcSize=2;html=1;strokeColor=none;gradientColor=none;shadow=0;dashed=0;fontSize=12;fontColor=#666666;align=center;verticalAlign=top;spacing=10;spacingTop=-7;fillColor=#FFF2CC;" vertex="1" parent="WIyWlLk6GJQsqaUBKTNV-1">
          <mxGeometry x="698.5" y="1060.5" width="44" height="30" as="geometry" />
        </mxCell>
        <mxCell id="CGNY96M8Sa9pFSSGAjqj-272" value="1m" style="sketch=0;points=[[0,0,0],[0.25,0,0],[0.5,0,0],[0.75,0,0],[1,0,0],[1,0.25,0],[1,0.5,0],[1,0.75,0],[1,1,0],[0.75,1,0],[0.5,1,0],[0.25,1,0],[0,1,0],[0,0.75,0],[0,0.5,0],[0,0.25,0]];rounded=1;absoluteArcSize=1;arcSize=2;html=1;strokeColor=none;gradientColor=none;shadow=0;dashed=0;fontSize=12;fontColor=#666666;align=center;verticalAlign=top;spacing=10;spacingTop=-7;fillColor=#FFF2CC;" vertex="1" parent="WIyWlLk6GJQsqaUBKTNV-1">
          <mxGeometry x="698.5" y="1096.5" width="44" height="30" as="geometry" />
        </mxCell>
        <mxCell id="CGNY96M8Sa9pFSSGAjqj-273" value="3m" style="sketch=0;points=[[0,0,0],[0.25,0,0],[0.5,0,0],[0.75,0,0],[1,0,0],[1,0.25,0],[1,0.5,0],[1,0.75,0],[1,1,0],[0.75,1,0],[0.5,1,0],[0.25,1,0],[0,1,0],[0,0.75,0],[0,0.5,0],[0,0.25,0]];rounded=1;absoluteArcSize=1;arcSize=2;html=1;strokeColor=none;gradientColor=none;shadow=0;dashed=0;fontSize=12;fontColor=#666666;align=center;verticalAlign=top;spacing=10;spacingTop=-7;fillColor=#FFF2CC;" vertex="1" parent="WIyWlLk6GJQsqaUBKTNV-1">
          <mxGeometry x="699" y="1134" width="44" height="30" as="geometry" />
        </mxCell>
        <mxCell id="CGNY96M8Sa9pFSSGAjqj-274" value="5m" style="sketch=0;points=[[0,0,0],[0.25,0,0],[0.5,0,0],[0.75,0,0],[1,0,0],[1,0.25,0],[1,0.5,0],[1,0.75,0],[1,1,0],[0.75,1,0],[0.5,1,0],[0.25,1,0],[0,1,0],[0,0.75,0],[0,0.5,0],[0,0.25,0]];rounded=1;absoluteArcSize=1;arcSize=2;html=1;strokeColor=none;gradientColor=none;shadow=0;dashed=0;fontSize=12;fontColor=#666666;align=center;verticalAlign=top;spacing=10;spacingTop=-7;fillColor=#FFF2CC;" vertex="1" parent="WIyWlLk6GJQsqaUBKTNV-1">
          <mxGeometry x="699" y="1170" width="44" height="30" as="geometry" />
        </mxCell>
      </root>
    </mxGraphModel>
  </diagram>
</mxfile>
